<?xml version="1.0" encoding="UTF-8" standalone="no"?>
<svg width="146px" height="147px" viewBox="0 0 146 147" version="1.1" xmlns="http://www.w3.org/2000/svg" xmlns:xlink="http://www.w3.org/1999/xlink">
    <!-- Generator: Sketch 41.2 (35397) - http://www.bohemiancoding.com/sketch -->
    <title>Accesscontrol</title>
    <desc>Created with Sketch.</desc>
    <defs></defs>
    <g id="Logo-og-ikoner" stroke="none" stroke-width="1" fill="none" fill-rule="evenodd">
        <g id="Artboard-2" transform="translate(-1993.000000, -2262.000000)" fill="#000000">
            <path d="M2127.38572,2273.75652 C2111.15772,2257.52853 2084.38153,2258.17981 2067.34214,2275.21921 C2054.67997,2287.88137 2051.11414,2306.21251 2056.95405,2321.30888 C2057.27429,2322.12028 2057.11417,2323.09179 2056.46289,2323.74308 L2035.36649,2344.83947 C2035.20638,2345.1597 2035.04626,2345.49075 2034.87749,2345.9711 L2033.25469,2357.49298 C2033.09241,2358.30438 2032.44329,2358.9535 2031.63189,2359.11578 L2021.40392,2360.24741 C2020.59252,2360.40753 2019.78113,2361.05881 2019.78113,2361.87021 L2018.97838,2371.45555 C2018.81826,2372.42706 2018.16698,2373.07835 2017.19546,2373.23846 L2006.9675,2373.88975 C2006.4785,2374.04986 2006.1561,2374.37875 2005.6671,2374.54103 L1994.63639,2387.84366 C1994.47627,2388.00378 1994.47627,2388.33483 1994.31615,2388.49494 L1993.01359,2402.94002 C1992.85347,2403.91154 1994.14522,2404.56282 1994.95662,2403.75142 L2058.2458,2340.29996 C2058.89709,2339.65084 2060.191,2339.65084 2060.84228,2340.29996 C2061.4914,2340.95124 2061.4914,2342.24516 2060.84228,2342.89644 L1997.71321,2406.18562 C1996.91047,2406.99702 1997.56175,2408.12866 1998.53327,2408.12866 L2012.32707,2407.15714 C2012.6473,2406.99702 2012.81607,2406.99702 2013.13847,2406.83474 L2077.72805,2345.16836 C2078.37934,2344.51924 2079.19074,2344.35696 2080.00214,2344.67936 C2095.0985,2350.35915 2113.10941,2346.79116 2125.76292,2334.13116 C2142.80232,2317.09176 2143.44278,2289.98452 2127.38572,2273.75652 Z M2086.6448,2314.65756 C2078.21057,2306.22117 2078.5308,2292.09848 2087.4562,2283.3332 C2096.38159,2274.56792 2110.33767,2274.08757 2118.78055,2282.5218 C2127.21479,2290.9582 2126.89455,2305.08088 2117.96916,2313.84616 C2109.04376,2322.60279 2095.08984,2323.09179 2086.6448,2314.65756 Z" id="Accesscontrol"></path>
        </g>
    </g>
</svg>