<?xml version="1.0" encoding="UTF-8" standalone="no"?>
<svg width="120px" height="150px" viewBox="0 0 120 150" version="1.1" xmlns="http://www.w3.org/2000/svg" xmlns:xlink="http://www.w3.org/1999/xlink">
    <!-- Generator: Sketch 40.3 (33839) - http://www.bohemiancoding.com/sketch -->
    <title>Advis</title>
    <desc>Created with Sketch.</desc>
    <defs></defs>
    <g id="Logo" stroke="none" stroke-width="1" fill="none" fill-rule="evenodd">
        <g id="Artboard-2" transform="translate(-2204.000000, -3800.000000)" fill="#000000">
            <g id="Advis" transform="translate(2203.000000, 3800.000000)">
                <path d="M18.546,92.446 L18.546,82.93 C18.546,72.734 18.25,62.54 18.656,52.36 C19.29,35.812 27.79,24.29 42.516,17.204 C44.382,16.304 45.258,15.5 45.414,13.25 C46.04,4.368 55.898,-1.898 65.086,0.524 C71.774,2.282 76.124,7.376 76.718,14.336 C76.836,15.672 77.336,16.258 78.54,16.758 C93.352,22.914 103.766,37.328 103.446,54.304 C103.21,66.492 103.39,78.688 103.382,90.876 L103.382,92.376 C106.898,93.984 110.234,95.164 113.204,96.954 C117.86,99.766 120.25,104.046 120.062,109.64 C119.96,112.57 120.062,115.5 120.062,118.43 C120.046,122.046 118.25,123.922 114.704,123.922 C78.868,123.938 43.024,123.938 7.188,123.922 C3.976,123.922 2.124,122.282 2.046,119.086 C1.946,114.898 1.882,110.68 2.226,106.508 C2.594,102.062 5.368,98.89 9.062,96.742 C11.938,95.078 15.156,93.954 18.546,92.446 L18.546,92.446 Z" id="Fill-1"></path>
                <path d="M74.008,131.546 C75.766,131.812 76.774,132.93 76.734,134.696 C76.602,140.718 73.624,145.094 68.368,147.75 C66.118,148.89 63.484,149.274 61.04,149.992 C52.336,149.54 44.89,142.46 45.258,134.71 C45.336,133.016 46.094,131.882 47.75,131.578" id="Fill-2"></path>
            </g>
        </g>
    </g>
</svg>