<?xml version="1.0" encoding="UTF-8" standalone="no"?>
<svg width="121px" height="162px" viewBox="0 0 121 162" version="1.1" xmlns="http://www.w3.org/2000/svg" xmlns:xlink="http://www.w3.org/1999/xlink">
    <!-- Generator: Sketch 40.3 (33839) - http://www.bohemiancoding.com/sketch -->
    <title>Aftalefrister</title>
    <desc>Created with Sketch.</desc>
    <defs></defs>
    <g id="Logo" stroke="none" stroke-width="1" fill="none" fill-rule="evenodd">
        <g id="Artboard-2" transform="translate(-2228.000000, -2936.000000)" fill="#000000">
            <g id="Aftalefrister" transform="translate(2227.000000, 2934.000000)">
                <polygon id="Fill-1" points="40.2045455 37.9172432 82.3145091 37.9172432 82.3145091 28.0484324 40.2045455 28.0484324"></polygon>
                <path d="M76.0769818,19.7376216 L76.0769818,17.661027 C76.0769818,9.35021622 69.3181818,2.07881081 60.4809455,2.07881081 C51.6414909,2.07881081 44.8826909,8.82940541 44.8826909,17.661027 L44.8826909,19.7376216 M53.7221455,19.7376216 L53.7221455,17.661027 C53.2008727,14.0242162 56.8409091,10.3896216 61,10.3896216 C65.1590909,10.3896216 68.7991273,14.0242162 68.7991273,18.1796216 L68.7991273,20.2584324" id="Fill-2"></path>
                <path d="M111.428145,31.6852432 L89.5945818,31.6852432 L89.5945818,41.5540541 C89.5945818,43.6328649 88.0352,45.7094595 85.4354909,45.7094595 L35.5264,45.7094595 C33.4457455,45.7094595 31.3673091,44.1514595 31.3673091,41.5540541 L31.3673091,31.6852432 L10.5718545,31.6852432 C5.37243636,31.6852432 1.21334545,35.8406486 1.21334545,41.0354595 L1.21334545,154.268595 C1.21334545,159.463405 5.37243636,163.618811 10.5718545,163.618811 L111.949418,163.618811 C117.146618,163.618811 121.307927,159.463405 121.307927,154.268595 L121.307927,41.0354595 C120.786655,35.8406486 116.627564,31.6852432 111.428145,31.6852432 L111.428145,31.6852432 Z M88.5542545,82.0687027 L55.8005818,114.793351 C54.2412,116.351351 51.6414909,117.390757 49.0417818,117.390757 C46.4442909,117.390757 44.3636364,116.351351 42.2829818,114.793351 L32.9266909,105.443135 C31.3673091,103.885135 31.3673091,101.28773 32.9266909,99.7297297 C34.4860727,98.1717297 37.0857818,98.1717297 38.6451636,99.7297297 L48.0036727,109.079946 C48.5227273,109.598541 49.0417818,109.598541 50.0821091,109.079946 L82.8357818,76.3552973 C84.3951636,74.7972973 86.9948727,74.7972973 88.5542545,76.3552973 C90.1136364,78.4341081 90.1136364,80.5107027 88.5542545,82.0687027 L88.5542545,82.0687027 Z" id="Fill-3"></path>
            </g>
        </g>
    </g>
</svg>