<?xml version="1.0" encoding="UTF-8" standalone="no"?>
<svg width="150px" height="139px" viewBox="0 0 150 139" version="1.1" xmlns="http://www.w3.org/2000/svg" xmlns:xlink="http://www.w3.org/1999/xlink">
    <!-- Generator: Sketch 40.3 (33839) - http://www.bohemiancoding.com/sketch -->
    <title>Arkiv</title>
    <desc>Created with Sketch.</desc>
    <defs></defs>
    <g id="Logo" stroke="none" stroke-width="1" fill="none" fill-rule="evenodd">
        <g id="Artboard-2" transform="translate(-252.000000, -1334.000000)" fill="#000000">
            <path d="M397.813145,1382.86 C400.275145,1382.86 402.149145,1384.852 401.993145,1387.304 L396.837145,1468.562 C396.681145,1471.016 394.555145,1473 392.079145,1473 L261.923145,1473 C259.455145,1473 257.321145,1471.016 257.165145,1468.562 L252.009145,1387.304 C251.853145,1384.852 253.711145,1382.86 256.189145,1382.86 L397.813145,1382.86 Z M260.829145,1339.132 C260.727145,1336.664 262.633145,1334.672 265.087145,1334.672 L302.563145,1334.672 C305.025145,1334.672 308.649145,1335.82 310.665145,1337.242 L329.619145,1350.594 C330.431145,1351.164 331.883145,1351.626 332.861145,1351.626 L388.141145,1351.626 C390.611145,1351.626 392.477145,1353.618 392.305145,1356.078 L391.133145,1373.062 C390.969145,1375.516 388.837145,1377.508 386.369145,1377.508 L266.883145,1377.508 C264.423145,1377.508 262.345145,1375.5 262.243145,1373.046 L260.829145,1339.132 Z" id="Arkiv"></path>
        </g>
    </g>
</svg>