<?xml version="1.0" encoding="UTF-8" standalone="no"?>
<svg width="118px" height="118px" viewBox="0 0 118 118" version="1.1" xmlns="http://www.w3.org/2000/svg" xmlns:xlink="http://www.w3.org/1999/xlink">
    <!-- Generator: Sketch 40.3 (33839) - http://www.bohemiancoding.com/sketch -->
    <title>Betalingsmodel</title>
    <desc>Created with Sketch.</desc>
    <defs></defs>
    <g id="Logo" stroke="none" stroke-width="1" fill="none" fill-rule="evenodd">
        <g id="Artboard-2" transform="translate(-2228.000000, -3197.000000)" fill="#000000">
            <path d="M2345.54619,3267.86571 L2345.54619,3267.86571 C2345.53968,3265.38667 2343.76661,3263.27037 2341.32661,3262.83931 L2334.69307,3261.61931 C2333.91715,3258.72221 2332.76221,3255.94387 2331.26243,3253.34608 L2335.14365,3247.81704 C2336.56699,3245.78371 2336.32624,3243.02 2334.57269,3241.26645 L2330.58248,3237.27624 C2328.81592,3235.51619 2326.0392,3235.28683 2324.01237,3236.72968 L2318.49635,3240.63043 C2315.89693,3239.13227 2313.12021,3237.98221 2310.22312,3237.19979 L2309.00312,3230.56624 C2308.57043,3228.12624 2306.45576,3226.34667 2303.97672,3226.34667 L2298.39237,3226.34667 C2295.91333,3226.35317 2293.79704,3228.12624 2293.36597,3230.56624 L2292.14597,3237.19979 C2289.24888,3237.97571 2286.47053,3239.13227 2283.87275,3240.63043 L2278.39576,3236.72968 C2276.36243,3235.30635 2273.59709,3235.54709 2271.84355,3237.30227 L2267.85333,3241.29248 C2266.07376,3243.04603 2265.82,3245.82275 2267.25635,3247.86909 L2271.1392,3253.39651 C2269.63941,3255.99592 2268.48936,3258.77264 2267.70693,3261.66973 L2261.07339,3262.88973 C2258.63339,3263.32243 2256.85381,3265.43709 2256.85381,3267.91613 L2256.85381,3273.55253 C2256.86032,3276.02995 2258.63339,3278.14624 2261.07339,3278.57893 L2267.70693,3279.79893 C2268.50237,3282.65699 2269.66381,3285.40931 2271.15709,3287.96968 L2267.25635,3293.48571 C2265.83301,3295.51904 2266.07376,3298.28275 2267.82893,3300.03629 L2271.81915,3304.02651 C2273.57269,3305.78656 2276.3364,3306.02893 2278.36973,3304.59909 L2283.89715,3300.71624 C2286.49656,3302.21603 2289.27328,3303.36608 2292.17037,3304.14688 L2293.39037,3310.78043 C2293.82307,3313.22043 2295.93936,3315 2298.41677,3315 L2304.05317,3315 C2306.53221,3314.99349 2308.64688,3313.22043 2309.07957,3310.78043 L2310.29957,3304.14688 C2313.16576,3303.36608 2315.92296,3302.20952 2318.49635,3300.71624 L2324.02376,3304.59909 C2326.05709,3306.02243 2328.82243,3305.78005 2330.57597,3304.02651 L2334.56619,3300.03629 C2336.32624,3298.28275 2336.56699,3295.51904 2335.13715,3293.48571 L2331.24291,3287.96968 C2332.74269,3285.37027 2333.89275,3282.59355 2334.67355,3279.69645 L2341.30709,3278.47645 C2343.74709,3278.04376 2345.52667,3275.92909 2345.52667,3273.45005 L2345.54619,3267.86571 Z M2311.17635,3284.01688 L2311.17635,3284.01688 C2309.67656,3285.81597 2307.64973,3287.09291 2305.38216,3287.67688 C2304.70709,3287.86232 2304.51677,3288.10307 2304.54931,3288.73909 C2304.58672,3289.37349 2304.54931,3290.04043 2304.54931,3290.70248 L2304.54931,3291.66709 C2304.64365,3292.79275 2303.72296,3293.74597 2302.59893,3293.68253 L2299.43995,3293.68253 C2298.26387,3293.77688 2297.28624,3292.80576 2297.3692,3291.62968 L2297.3692,3289.50688 C2297.38221,3289.17016 2297.36269,3288.83344 2297.29275,3288.50973 C2296.99344,3288.41376 2296.68275,3288.35032 2296.36555,3288.31291 C2294.38264,3288.04613 2292.44365,3287.49307 2290.62016,3286.66672 C2288.96259,3285.85989 2288.65677,3285.19296 2289.1464,3283.41989 C2289.4392,3282.33328 2289.74339,3281.24667 2290.0736,3280.17307 C2290.24603,3279.61349 2290.57624,3278.57243 2291.59941,3278.57243 C2292.03048,3278.61635 2292.45016,3278.75624 2292.81941,3278.9856 C2294.67381,3279.93232 2296.68925,3280.52931 2298.76,3280.75053 C2299.99952,3280.92296 2301.26344,3280.75704 2302.42,3280.27555 C2303.28376,3279.95021 2303.90677,3279.19381 2304.06619,3278.28613 C2304.18005,3277.34592 2303.77989,3276.41221 2303.01699,3275.84613 C2302.36307,3275.34349 2301.6392,3274.93032 2300.86979,3274.62613 C2300.22237,3274.34635 2299.56683,3274.07957 2298.91941,3273.81931 C2297.38709,3273.24672 2295.90683,3272.56027 2294.49,3271.75995 C2290.64619,3269.45333 2288.89264,3266.46677 2289.12037,3262.60995 C2289.38715,3258.11221 2291.85317,3254.97275 2296.44037,3253.31355 C2297.66037,3252.86296 2297.66037,3252.86296 2297.66037,3251.59253 L2297.66037,3250.95651 L2297.66037,3249.73651 C2297.66037,3248.03989 2298.20693,3247.53888 2299.89053,3247.49333 L2301.47979,3247.49333 C2304.40941,3247.49333 2304.62576,3247.96995 2304.63715,3250.96952 C2304.63715,3252.39936 2304.63715,3252.39936 2306.06699,3252.61571 C2307.63021,3252.86947 2309.15603,3253.32005 2310.60376,3253.96909 C2311.61555,3254.30581 2312.16048,3255.39893 2311.82376,3256.40909 L2311.53259,3257.44365 C2311.29021,3258.32043 2311.02995,3259.1972 2310.75016,3260.06909 C2310.54032,3260.72952 2310.11576,3262.26672 2307.99296,3261.28909 C2305.94011,3260.33587 2303.67253,3259.92269 2301.41635,3260.09349 C2300.86328,3260.1 2300.31672,3260.20899 2299.8092,3260.41232 C2299.09021,3260.67259 2298.55667,3261.2956 2298.41677,3262.04387 C2298.35333,3262.78888 2298.69656,3263.50624 2299.30656,3263.93893 C2300.17032,3264.59936 2301.13005,3265.13291 2302.14672,3265.52656 L2302.79576,3265.79333 C2304.46635,3266.44888 2306.09301,3267.19715 2307.67576,3268.03651 C2310.55333,3269.59323 2312.58667,3272.34555 2313.2292,3275.55333 C2313.83269,3278.53989 2313.0828,3281.64032 2311.17635,3284.01688 L2311.17635,3284.01688 Z M2231.3428,3226.22629 L2236.57904,3225.31048 C2237.19555,3223.02989 2238.10323,3220.84365 2239.28581,3218.79893 L2236.23581,3214.44597 C2235.11016,3212.84371 2235.30048,3210.6656 2236.6864,3209.28619 L2239.81936,3206.15323 C2241.20365,3204.76893 2243.37688,3204.57699 2244.97915,3205.70264 L2249.33048,3208.75264 C2251.37683,3207.57005 2253.56307,3206.66237 2255.84365,3206.04587 L2256.75947,3200.80963 C2257.09619,3198.88365 2258.76677,3197.47984 2260.72365,3197.47984 L2265.16608,3197.47984 C2267.12296,3197.47984 2268.79355,3198.88365 2269.13027,3200.80963 L2270.04608,3206.04587 C2272.32667,3206.66237 2274.51941,3207.57005 2276.55925,3208.75264 L2280.91221,3205.70264 C2282.51285,3204.57699 2284.69259,3204.76893 2286.07037,3206.15323 L2289.21635,3209.29269 C2290.60227,3210.67699 2290.79259,3212.85021 2289.66693,3214.45248 L2286.61693,3218.80381 C2287.50672,3220.38005 2288.23221,3222.04576 2288.79016,3223.76677 C2287.49371,3225.37555 2286.62344,3227.28688 2286.26883,3229.32021 L2285.84264,3231.76021 L2284.53968,3232.29376 L2282.53888,3230.88995 C2280.46651,3229.4292 2277.9956,3228.64677 2275.45963,3228.65979 C2275.07248,3228.65979 2274.6772,3228.73624 2274.23963,3228.76715 C2272.9692,3224.80947 2269.72888,3221.79688 2265.68661,3220.81275 C2261.65248,3219.83349 2257.38899,3221.02259 2254.43984,3223.95221 C2251.4972,3226.88672 2250.28371,3231.1372 2251.24995,3235.18597 C2252.20968,3239.23312 2255.20925,3242.47995 2259.16043,3243.7764 C2258.87576,3246.69952 2259.64355,3249.62915 2261.33365,3252.03661 L2262.73909,3254.03904 C2262.55365,3254.4636 2262.36984,3254.9028 2262.20555,3255.33549 L2259.76555,3255.76005 C2257.73221,3256.1228 2255.82576,3256.99307 2254.21048,3258.28301 C2252.48947,3257.72344 2250.82376,3256.99957 2249.24915,3256.10979 L2244.89619,3259.15979 C2243.30693,3260.23339 2241.18576,3260.03656 2239.81936,3258.68968 L2236.67339,3255.54371 C2235.28909,3254.15941 2235.09715,3251.98619 2236.2228,3250.38555 L2239.2728,3246.03259 C2238.09021,3243.98624 2237.18253,3241.8 2236.56603,3239.51941 L2231.32979,3238.6036 C2229.40381,3238.26688 2228,3236.59629 2228,3234.63941 L2228,3230.19048 C2228,3228.2336 2229.41032,3226.55651 2231.3428,3226.22629 L2231.3428,3226.22629 Z" id="Betalingsmodel"></path>
        </g>
    </g>
</svg>