<?xml version="1.0" encoding="UTF-8" standalone="no"?>
<svg width="138px" height="138px" viewBox="0 0 138 138" version="1.1" xmlns="http://www.w3.org/2000/svg" xmlns:xlink="http://www.w3.org/1999/xlink">
    <!-- Generator: Sketch 40.3 (33839) - http://www.bohemiancoding.com/sketch -->
    <title>EksterneReferencer</title>
    <desc>Created with Sketch.</desc>
    <defs></defs>
    <g id="Logo" stroke="none" stroke-width="1" fill="none" fill-rule="evenodd">
        <g id="Artboard-2" transform="translate(-255.000000, -433.000000)" fill="#000000">
            <path d="M383.837159,486.498257 L374.938978,495.355823 C369.268844,501.017608 361.445342,504.526151 352.789766,504.526151 C346.359737,504.526151 340.384843,502.59144 335.418463,499.271356 L321.369443,513.524059 C324.603504,518.379881 326.530307,524.348414 326.530307,530.770049 C326.530307,539.431137 323.029581,547.262204 317.359447,552.948047 L308.523421,561.805614 C302.845266,567.491457 295.005724,571 286.344133,571 C269.034986,571 255,556.96583 255,539.657688 C255,531.012639 258.500726,523.181573 264.162841,517.503748 L273.061022,508.646182 C278.731156,502.984397 286.554658,499.475854 295.210234,499.475854 C301.640263,499.475854 307.615157,501.40856 312.581537,504.730649 L326.632562,490.475941 C323.396496,485.620119 321.469693,479.653591 321.469693,473.231956 C321.469693,464.568863 324.972424,456.737796 330.642558,451.051953 L339.476579,442.194386 C345.154734,436.508543 352.994276,433 361.655867,433 C378.965014,433 393,447.03417 393,464.342312 C393,472.989365 389.499274,480.820432 383.837159,486.498257 L383.837159,486.498257 Z M281.895043,517.511768 L273.061022,526.369334 C269.47408,529.797681 267.242518,534.623431 267.242518,539.972455 C267.242518,550.355736 275.653484,558.768218 286.039374,558.768218 C291.380688,558.768218 296.204713,556.53478 299.619225,552.956067 L308.523421,544.090481 C311.883797,540.700227 313.95897,536.040882 313.95897,530.886332 C313.95897,527.927127 313.277271,525.130317 312.056227,522.632235 L308.531441,526.361315 C307.396612,527.504097 305.822688,528.209815 304.084355,528.209815 C300.621724,528.209815 297.802697,525.396967 297.802697,521.928522 C297.802697,520.196304 298.506451,518.630492 299.635265,517.495729 L303.268321,513.876918 C300.896408,512.710077 298.099436,512.036437 295.146074,512.036437 C289.97719,512.036437 285.293514,514.119508 281.903063,517.503748 L281.895043,517.511768 Z M374.938978,451.059972 C371.540507,447.661698 366.840792,445.562587 361.655867,445.562587 C356.470942,445.562587 351.773232,447.661698 348.372755,451.059972 L339.476579,459.917538 C336.116203,463.307793 334.04103,467.969142 334.04103,473.121688 C334.04103,476.082897 334.722729,478.885722 335.943773,481.375785 L339.468559,477.64871 C340.603388,476.503923 342.179317,475.800209 343.91765,475.800209 C347.378276,475.800209 350.199308,478.611053 350.199308,482.081503 C350.199308,483.811715 349.493549,485.377528 348.364735,486.514296 L344.731679,490.131102 C347.105597,491.297943 349.900564,491.971583 352.853926,491.971583 C358.02281,491.971583 362.706486,489.888511 366.096937,486.506276 L374.930958,477.64871 C378.331435,474.248431 380.438688,469.550994 380.438688,464.358351 C380.438688,459.173727 378.331435,454.466266 374.930958,451.067992 L374.938978,451.059972 Z" id="EksterneReferencer"></path>
        </g>
    </g>
</svg>