<?xml version="1.0" encoding="UTF-8" standalone="no"?>
<svg width="136px" height="71px" viewBox="0 0 136 71" version="1.1" xmlns="http://www.w3.org/2000/svg" xmlns:xlink="http://www.w3.org/1999/xlink">
    <!-- Generator: Sketch 40.3 (33839) - http://www.bohemiancoding.com/sketch -->
    <title>End-to-end</title>
    <desc>Created with Sketch.</desc>
    <defs></defs>
    <g id="Logo" stroke="none" stroke-width="1" fill="none" fill-rule="evenodd">
        <g id="Artboard-2" transform="translate(-252.000000, -1079.000000)" fill="#000000">
            <path d="M316.39,1106.814 C317.414,1105.5 317.398,1103.43 316.358,1102.142 C306.554,1090.048 295.866,1079.742 282.366,1079.742 C264.6,1079.742 252,1095.352 252,1115.242 C252,1134.376 264.804,1149.994 280.922,1149.994 C297.858,1149.994 309.226,1136.142 325.952,1114.494 C332.148,1107.188 344.336,1091.078 356.936,1091.078 C367.678,1091.078 376.562,1099.642 375.944,1115.75 C375.53,1128.086 367.89,1138.664 356.32,1138.664 C346.264,1137.328 339.6,1130.86 329.898,1119.266 C328.796,1117.954 327.03,1117.994 325.976,1119.36 C324.922,1120.72 323.858,1122.078 322.796,1123.43 C321.734,1124.782 321.78,1126.93 322.906,1128.204 C335.922,1142.994 345.506,1150 356.32,1150 C373.054,1150 387.1,1136.408 387.1,1115 C387.1,1095.11 375.328,1079.75 358.39,1079.75 C341.866,1079.75 331.124,1092.844 318.624,1108.828 C306.124,1124.822 294.96,1138.664 282.984,1138.664 C271.828,1138.664 263.358,1128.594 263.156,1115.5 C262.952,1102.658 269.976,1091.078 281.336,1091.078 C292.734,1091.078 301.75,1100.688 309.514,1110.524 C310.592,1111.892 312.39,1111.892 313.476,1110.524 C314.452,1109.29 315.422,1108.056 316.39,1106.814 Z" id="End-to-end"></path>
        </g>
    </g>
</svg>