<?xml version="1.0" encoding="UTF-8" standalone="no"?>
<svg width="153px" height="153px" viewBox="0 0 153 153" version="1.1" xmlns="http://www.w3.org/2000/svg" xmlns:xlink="http://www.w3.org/1999/xlink">
    <!-- Generator: Sketch 40.3 (33839) - http://www.bohemiancoding.com/sketch -->
    <title>Faser</title>
    <desc>Created with Sketch.</desc>
    <defs></defs>
    <g id="Logo" stroke="none" stroke-width="1" fill="none" fill-rule="evenodd">
        <g id="Faser" fill="#000000">
            <path d="M103.454609,23.7327391 L97.6339565,17.9032174 C120.666,26.2627826 137.409522,47.7958696 138.691174,73.3734783 L152.576478,73.3734783 L129.267261,96.6826957 L105.958043,73.3734783 L119.357739,73.3734783 C118.093826,56.1354783 106.729696,41.7401739 91.1724783,36.0326087 L103.463478,23.7327391 L103.454609,23.7327391 Z" id="Fill-1"></path>
            <path d="M116.976261,91.1724783 C111.268696,106.729696 96.8733913,118.093826 79.6353913,119.34887 L79.6353913,105.949174 L56.3173043,129.258391 L79.6265217,152.567609 L79.6265217,138.691174 C105.20413,137.418391 126.728348,120.666 135.087913,97.6339565 L129.258391,103.463478 L116.967391,91.1724783 L116.976261,91.1724783 Z" id="Fill-2"></path>
            <path d="M61.8275217,116.976261 C46.2703043,111.268696 34.9061739,96.8733913 33.6511304,79.6353913 L47.0508261,79.6353913 L23.7327391,56.3261739 L0.423521739,79.6353913 L14.2999565,79.6353913 C15.5816087,105.213 32.334,126.737217 55.3571739,135.096783 L49.5365217,129.27613 L61.8275217,116.98513 L61.8275217,116.976261 Z" id="Fill-3"></path>
            <path d="M36.0237391,61.8275217 C41.7401739,46.2614348 56.1266087,34.8973043 73.3646087,33.6511304 L73.3646087,47.0508261 L96.6738261,23.7416087 L73.3646087,0.432391304 L73.3646087,14.3088261 C47.787,15.5904783 26.2627826,32.3428696 17.9032174,55.3660435 L23.7327391,49.5453913 L36.0237391,61.8363913 L36.0237391,61.8275217 Z" id="Fill-4"></path>
        </g>
    </g>
</svg>