<?xml version="1.0" encoding="iso-8859-1"?>
<!-- Generator: Adobe Illustrator 16.0.0, SVG Export Plug-In . SVG Version: 6.00 Build 0)  -->
<!DOCTYPE svg PUBLIC "-//W3C//DTD SVG 1.1//EN" "http://www.w3.org/Graphics/SVG/1.1/DTD/svg11.dtd">
<svg version="1.1" id="Capa_1" xmlns="http://www.w3.org/2000/svg" xmlns:xlink="http://www.w3.org/1999/xlink" x="0px" y="0px"
	 width="612px" height="612px" viewBox="0 0 612 612" style="enable-background:new 0 0 612 612;" xml:space="preserve">
<g>
	<g>
		<path d="M439.875,353.812c0-47.812,38.25-86.062,86.062-86.062c9.562,0,19.125,1.912,28.688,5.737v-24.862H0V459
			c0,21.037,17.212,38.25,38.25,38.25h382.5v-76.5c0-13.388,7.65-26.775,19.125-32.513V353.812z"/>
		<path d="M554.625,191.25c0-21.038-17.213-38.25-38.25-38.25h-229.5l-38.25-76.5H38.25C17.212,76.5,0,93.712,0,114.75V229.5
			h554.625V191.25z"/>
		<path d="M592.875,401.625v-47.812c0-36.338-30.6-66.938-66.938-66.938S459,317.475,459,353.812v47.812
			c-11.475,0-19.125,7.65-19.125,19.125v95.625c0,11.475,7.65,19.125,19.125,19.125h133.875c11.475,0,19.125-7.65,19.125-19.125
			V420.75C612,409.275,604.35,401.625,592.875,401.625z M573.75,401.625h-95.625v-47.812c0-26.775,21.037-47.812,47.812-47.812
			s47.812,21.037,47.812,47.812V401.625z"/>
	</g>
</g>
<g>
</g>
<g>
</g>
<g>
</g>
<g>
</g>
<g>
</g>
<g>
</g>
<g>
</g>
<g>
</g>
<g>
</g>
<g>
</g>
<g>
</g>
<g>
</g>
<g>
</g>
<g>
</g>
<g>
</g>
</svg>
