<?xml version="1.0" encoding="UTF-8" standalone="no"?>
<svg width="106px" height="127px" viewBox="0 0 106 127" version="1.1" xmlns="http://www.w3.org/2000/svg" xmlns:xlink="http://www.w3.org/1999/xlink">
    <!-- Generator: Sketch 40.3 (33839) - http://www.bohemiancoding.com/sketch -->
    <title>Gevinster</title>
    <desc>Created with Sketch.</desc>
    <defs></defs>
    <g id="Logo" stroke="none" stroke-width="1" fill="none" fill-rule="evenodd">
        <g id="Artboard-2" transform="translate(-252.000000, -4934.000000)" fill="#000000">
            <path d="M273.53562,5027.992 L259.73962,5027.992 C258.23962,5027.992 257.03562,5029.196 257.03562,5030.696 L257.03562,5058.15 C257.03562,5059.65 258.23962,5060.852 259.73962,5060.852 L273.53562,5060.852 C275.03562,5060.852 276.23962,5059.65 276.23962,5058.15 L276.23962,5030.696 C276.23962,5029.196 275.03562,5027.992 273.53562,5027.992 L273.53562,5027.992 Z M299.93362,5011.492 L286.13762,5011.492 C284.63762,5011.492 283.43362,5012.696 283.43362,5014.196 L283.43362,5058.15 C283.43362,5059.65 284.63762,5060.852 286.13762,5060.852 L299.93362,5060.852 C301.43362,5060.852 302.63762,5059.65 302.63762,5058.15 L302.63762,5014.196 C302.48962,5012.696 301.28562,5011.492 299.93362,5011.492 L299.93362,5011.492 Z M326.63762,4993.196 L312.83962,4993.196 C311.33962,4993.196 310.13762,4994.4 310.13762,4995.9 L310.13762,5058.298 C310.13762,5059.798 311.33962,5061 312.83962,5061 L326.63762,5061 C328.13762,5061 329.33962,5059.798 329.33962,5058.298 L329.33962,4995.742 C329.33162,4994.4 328.13762,4993.196 326.63762,4993.196 L326.63762,4993.196 Z M354.38762,4970.242 L340.58962,4970.242 C339.08962,4970.242 337.88762,4971.446 337.88762,4972.946 L337.88762,5058.298 C337.88762,5059.798 339.08962,5061 340.58962,5061 L354.38762,5061 C355.88762,5061 357.08962,5059.798 357.08962,5058.298 L357.08962,4972.798 C357.08162,4971.446 355.88762,4970.242 354.38762,4970.242 L354.38762,4970.242 Z M346.73962,4934.548 L319.58962,4943.25 L325.58962,4948.65 L299.78562,4976.992 L282.08162,4976.54 C280.28562,4976.54 278.48162,4977.29 277.28562,4978.642 L253.58162,5004.9 C251.33162,5007.446 251.48162,5011.352 254.03562,5013.602 C255.23962,5014.65 256.73962,5015.25 258.23962,5015.25 C259.88762,5015.25 261.69162,5014.5 262.88762,5013.15 L284.63762,4988.852 L302.33962,4989.306 C304.13762,4989.306 305.94162,4988.556 307.13762,4987.204 L334.88762,4956.75 L340.88762,4962.15 L346.73962,4934.548 Z" id="Gevinster"></path>
        </g>
    </g>
</svg>