<?xml version="1.0" encoding="UTF-8" standalone="no"?>
<svg width="119px" height="104px" viewBox="0 0 119 104" version="1.1" xmlns="http://www.w3.org/2000/svg" xmlns:xlink="http://www.w3.org/1999/xlink">
    <!-- Generator: Sketch 40.3 (33839) - http://www.bohemiancoding.com/sketch -->
    <title>Hierarki</title>
    <desc>Created with Sketch.</desc>
    <defs></defs>
    <g id="Logo" stroke="none" stroke-width="1" fill="none" fill-rule="evenodd">
        <g id="Artboard-2" transform="translate(-2212.000000, -3621.000000)" fill="#000000">
            <path d="M2327.51773,3689.92419 L2316.08064,3689.92419 L2316.08064,3673.53064 C2316.08064,3672.00645 2314.93709,3670.48064 2313.03064,3670.48064 L2274.52419,3670.48064 L2274.52419,3655.99355 L2285.96128,3655.99355 C2287.48709,3655.99355 2289.01128,3654.85 2289.01128,3652.94355 L2289.01128,3624.73064 C2289.01128,3623.20645 2287.86773,3621.68064 2285.96128,3621.68064 L2257.36773,3621.68064 C2255.84355,3621.68064 2254.31773,3622.82419 2254.31773,3624.73064 L2254.31773,3653.32419 C2254.31773,3654.85 2255.46128,3656.37581 2257.36773,3656.37581 L2268.80483,3656.37581 L2268.80483,3670.86291 L2229.53709,3670.86291 C2228.01128,3670.86291 2226.48709,3672.00645 2226.48709,3673.91291 L2226.48709,3690.30645 L2215.04837,3690.30645 C2213.52419,3690.30645 2212,3691.45 2212,3693.35645 L2212,3721.95 C2212,3723.47581 2213.14355,3725 2215.04837,3725 L2243.64355,3725 C2245.16773,3725 2246.69355,3723.85645 2246.69355,3721.95 L2246.69355,3693.35645 C2246.69355,3691.83064 2245.54837,3690.30645 2243.64355,3690.30645 L2232.20483,3690.30645 L2232.20483,3676.96291 L2310.36128,3676.96291 L2310.36128,3690.30645 L2298.92419,3690.30645 C2297.4,3690.30645 2295.87419,3691.45 2295.87419,3693.35645 L2295.87419,3721.95 C2295.87419,3723.47581 2297.01773,3725 2298.92419,3725 L2327.51773,3725 C2329.04355,3725 2330.56773,3723.85645 2330.56773,3721.95 L2330.56773,3693.35645 C2330.56773,3691.45 2329.42419,3689.92419 2327.51773,3689.92419 L2327.51773,3689.92419 Z" id="Hierarki"></path>
        </g>
    </g>
</svg>