<?xml version="1.0" encoding="UTF-8" standalone="no"?>
<svg width="135px" height="135px" viewBox="0 0 135 135" version="1.1" xmlns="http://www.w3.org/2000/svg" xmlns:xlink="http://www.w3.org/1999/xlink">
    <!-- Generator: Sketch 40.3 (33839) - http://www.bohemiancoding.com/sketch -->
    <title>Interessenter</title>
    <desc>Created with Sketch.</desc>
    <defs></defs>
    <g id="Logo" stroke="none" stroke-width="1" fill="none" fill-rule="evenodd">
        <g id="Artboard-2" transform="translate(-252.000000, -3740.000000)" fill="#000000">
            <path d="M349.124,3794.57 C349.124,3818.04 330.032,3837.132 306.562,3837.132 C283.094,3837.132 264,3818.04 264,3794.57 C264,3771.102 283.094,3752.008 306.562,3752.008 C330.032,3752.008 349.124,3771.102 349.124,3794.57 L349.124,3794.57 Z M349.14,3828.664 C356.632,3819.328 361.124,3807.476 361.124,3794.57 C361.124,3764.438 336.696,3740.008 306.562,3740.008 C276.43,3740.008 252,3764.438 252,3794.57 C252,3824.704 276.43,3849.132 306.562,3849.132 C319.468,3849.132 331.32,3844.64 340.656,3837.148 L376.75,3873.242 C377.922,3874.414 379.46,3875 380.992,3875 C382.532,3875 384.07,3874.414 385.234,3873.242 C387.578,3870.906 387.578,3867.102 385.234,3864.758 L349.14,3828.664 Z M277.492,3819.04 C278.438,3818.304 279.602,3817.648 281.04,3817.132 C286.398,3815.196 292.516,3814.344 296.492,3812.132 C298.672,3810.922 298.93,3807.89 297.016,3806.298 C293.758,3803.578 291.954,3799.282 290.968,3794.898 C289.336,3794.156 284.734,3785.196 289.196,3784.312 C289.438,3784.266 289.672,3784.258 289.898,3784.282 C289.906,3774.196 296.868,3767.094 305.46,3767.094 C314.054,3767.094 321.024,3774.016 321.032,3784.282 C321.14,3784.282 321.25,3784.29 321.368,3784.312 C326.25,3785.126 322.024,3792.906 320.016,3794.618 C319.054,3799.102 317.242,3803.516 313.914,3806.298 C312,3807.89 312.258,3810.922 314.446,3812.132 C318.414,3814.336 324.532,3815.196 329.898,3817.126 C332,3817.89 333.532,3818.946 334.64,3820.11 C327.54,3827.476 317.578,3832.07 306.562,3832.07 C295.024,3832.07 284.632,3827.032 277.492,3819.04 L277.492,3819.04 Z" id="Interessenter"></path>
        </g>
    </g>
</svg>