<?xml version="1.0" encoding="UTF-8" standalone="no"?>
<svg width="122px" height="118px" viewBox="0 0 122 118" version="1.1" xmlns="http://www.w3.org/2000/svg" xmlns:xlink="http://www.w3.org/1999/xlink">
    <!-- Generator: Sketch 40.3 (33839) - http://www.bohemiancoding.com/sketch -->
    <title>ITsystemer</title>
    <desc>Created with Sketch.</desc>
    <defs></defs>
    <g id="Logo" stroke="none" stroke-width="1" fill="none" fill-rule="evenodd">
        <g id="Artboard-2" transform="translate(-252.000000, -4650.000000)" fill="#000000">
            <path d="M252,4650.804 L252,4688.304 L277.712,4688.304 L277.712,4693 L265.742,4693 L265.742,4697.686 L294.298,4697.686 L294.298,4693 L282.398,4693 L282.398,4688.304 L308.25,4688.304 L308.25,4650.804 L252,4650.804 Z M312.938,4669.562 L312.938,4674.25 L322.314,4674.25 L322.314,4669.562 L312.938,4669.562 Z M327,4669.562 L327,4674.25 L336.376,4674.25 L336.376,4669.562 L327,4669.562 Z M341.062,4669.562 L341.062,4674.25 L350.438,4674.25 L350.438,4669.562 L341.062,4669.562 Z M345.75,4678.936 L345.75,4688.312 L350.438,4688.312 L350.438,4678.936 L345.75,4678.936 Z M345.75,4693 L345.75,4702.374 L350.438,4702.374 L350.438,4693 L345.75,4693 Z M275.438,4702.374 L275.438,4707.062 L280.126,4707.062 L280.126,4702.374 L275.438,4702.374 Z M345.75,4707.062 L345.75,4716.436 L350.438,4716.436 L350.438,4707.062 L345.75,4707.062 Z M275.438,4711.75 L275.438,4721.124 L280.126,4721.124 L280.126,4711.75 L275.438,4711.75 Z M317.626,4721.116 L317.626,4758.616 L343.438,4758.616 L343.438,4763.312 L331.47,4763.312 L331.47,4768 L360.024,4768 L360.024,4763.312 L348.126,4763.312 L348.126,4758.616 L373.876,4758.616 L373.876,4721.116 L317.626,4721.116 Z M275.438,4725.812 L275.438,4735.186 L280.126,4735.186 L280.126,4725.812 L275.438,4725.812 Z M275.438,4737.53 L275.438,4742.218 L284.814,4742.218 L284.814,4737.53 L275.438,4737.53 Z M289.5,4737.53 L289.5,4742.218 L298.876,4742.218 L298.876,4737.53 L289.5,4737.53 Z M303.562,4737.53 L303.562,4742.218 L312.938,4742.218 L312.938,4737.53 L303.562,4737.53 Z" id="ITsystemer"></path>
        </g>
    </g>
</svg>