<?xml version="1.0" encoding="UTF-8" standalone="no"?>
<svg width="107px" height="94px" viewBox="0 0 107 94" version="1.1" xmlns="http://www.w3.org/2000/svg" xmlns:xlink="http://www.w3.org/1999/xlink">
    <!-- Generator: Sketch 40.3 (33839) - http://www.bohemiancoding.com/sketch -->
    <title>KLE</title>
    <desc>Created with Sketch.</desc>
    <defs></defs>
    <g id="Logo" stroke="none" stroke-width="1" fill="none" fill-rule="evenodd">
        <g id="Artboard-2" transform="translate(-252.000000, -2258.000000)" fill="#000000">
            <path d="M270.75,2258.25 L339.5,2258.25 C349.874,2258.25 358.25,2266.624 358.25,2277 L358.25,2333.25 C358.25,2343.624 349.874,2352 339.5,2352 L270.75,2352 C260.374,2352 252,2343.624 252,2333.25 L252,2277 C252,2266.624 260.374,2258.25 270.75,2258.25 L270.75,2258.25 Z M258.25,2333.25 C258.25,2340.124 263.874,2345.75 270.75,2345.75 L302,2345.75 L302,2327 L258.25,2327 L258.25,2333.25 L258.25,2333.25 Z M302,2302 L258.25,2302 L258.25,2320.75 L302,2320.75 L302,2302 L302,2302 Z M339.5,2345.75 C346.374,2345.75 352,2340.124 352,2333.25 L352,2327 L308.25,2327 L308.25,2345.75 L339.5,2345.75 L339.5,2345.75 Z M352,2302 L308.25,2302 L308.25,2320.75 L352,2320.75 L352,2302 L352,2302 Z M258.25,2295.75 L302,2295.75 L302,2277 L258.25,2277 L258.25,2295.75 L258.25,2295.75 Z M308.25,2295.75 L352,2295.75 L352,2277 L308.25,2277 L308.25,2295.75 Z" id="KLE"></path>
        </g>
    </g>
</svg>