<?xml version="1.0" encoding="UTF-8" standalone="no"?>
<svg width="125px" height="106px" viewBox="0 0 125 106" version="1.1" xmlns="http://www.w3.org/2000/svg" xmlns:xlink="http://www.w3.org/1999/xlink">
    <!-- Generator: Sketch 40.3 (33839) - http://www.bohemiancoding.com/sketch -->
    <title>Kommunikation</title>
    <desc>Created with Sketch.</desc>
    <defs></defs>
    <g id="Logo" stroke="none" stroke-width="1" fill="none" fill-rule="evenodd">
        <g id="Artboard-2" transform="translate(-271.000000, -4358.000000)" fill="#000000">
            <g id="Kommunikation" transform="translate(270.000000, 4357.000000)">
                <path d="M65.946,1.508 L7.11,1.508 C3.844,1.508 1.196,3.804 1.196,7.07 L1.196,44.164 C1.196,47.438 3.844,50.25 7.11,50.25 L12.43,50.25 L15.508,55.5 L19.132,50.25 L23,50.25 L23,35.554 C23,35.554 22.954,32.218 24.946,30.226 C26.93,28.242 29.258,27.226 31.124,27.226 L32.954,27.226 C32.804,26.766 32.718,26.274 32.718,25.758 C32.718,23.054 34.906,20.868 37.61,20.868 C40.312,20.868 42.5,23.062 42.5,25.758 C42.5,26.274 42.414,26.758 42.266,27.226 L49.258,27.226 C49.11,26.766 49.024,26.274 49.024,25.758 C49.024,23.054 51.21,20.868 53.914,20.868 C56.618,20.868 58.804,23.062 58.804,25.758 C58.804,26.266 58.718,26.758 58.57,27.226 L71.852,27.226 L71.852,7.078 C71.86,3.804 69.21,1.508 65.946,1.508 L65.946,1.508 Z M20.766,30.656 C18.062,30.656 15.876,28.468 15.876,25.766 C15.876,23.062 18.062,20.876 20.766,20.876 C23.468,20.876 25.656,23.07 25.656,25.766 C25.656,28.46 23.468,30.656 20.766,30.656 L20.766,30.656 Z" id="Fill-1"></path>
                <path d="M117.312,30.226 L34.344,30.226 C29.734,30.226 26,33.468 26,38.078 L26,90.382 C26,94.992 29.734,98.96 34.344,98.96 L41.844,98.96 L46.188,106.368 L51.296,98.96 L117.312,98.96 C121.922,98.96 125.656,94.992 125.656,90.382 L125.656,38.07 C125.656,33.468 121.922,30.226 117.312,30.226 L117.312,30.226 Z M53.594,71.124 C49.782,71.124 46.696,68.032 46.696,64.226 C46.696,60.414 49.782,57.328 53.594,57.328 C57.406,57.328 60.492,60.414 60.492,64.226 C60.492,68.04 57.406,71.124 53.594,71.124 L53.594,71.124 Z M77.36,71.124 C73.546,71.124 70.46,68.032 70.46,64.226 C70.46,60.414 73.546,57.328 77.36,57.328 C81.172,57.328 84.258,60.414 84.258,64.226 C84.258,68.04 81.172,71.124 77.36,71.124 L77.36,71.124 Z M100.36,71.124 C96.546,71.124 93.46,68.032 93.46,64.226 C93.46,60.414 96.554,57.328 100.36,57.328 C104.172,57.328 107.258,60.414 107.258,64.226 C107.258,68.04 104.172,71.124 100.36,71.124 L100.36,71.124 Z" id="Fill-2"></path>
            </g>
        </g>
    </g>
</svg>