<?xml version="1.0" encoding="UTF-8" standalone="no"?>
<svg width="122px" height="138px" viewBox="0 0 122 138" version="1.1" xmlns="http://www.w3.org/2000/svg" xmlns:xlink="http://www.w3.org/1999/xlink">
    <!-- Generator: Sketch 40.3 (33839) - http://www.bohemiancoding.com/sketch -->
    <title>Kontraktroller</title>
    <desc>Created with Sketch.</desc>
    <defs></defs>
    <g id="Logo" stroke="none" stroke-width="1" fill="none" fill-rule="evenodd">
        <g id="Artboard-2" transform="translate(-2227.000000, -3378.000000)" fill="#000000">
            <path d="M2227,3378 L2227,3499.57143 L2293.20314,3499.57143 C2293.32404,3499.09171 2293.4955,3498.62076 2293.71971,3498.18486 L2316.02703,3455.00838 L2316.02703,3378 L2227,3378 Z M2242.86879,3399.35714 L2242.86879,3399.35714 L2243.02267,3399.35714 L2243.17654,3399.35714 C2243.27986,3399.34838 2243.38317,3399.34838 2243.48649,3399.35714 L2299.54054,3399.35714 C2301.37823,3399.33086 2302.8818,3400.81162 2302.8818,3402.64286 C2302.8818,3404.4741 2301.37823,3405.95486 2299.54054,3405.92857 L2243.48649,3405.92857 C2239.09009,3406.34038 2238.4724,3399.76895 2242.86879,3399.35714 L2242.86879,3399.35714 Z M2242.86879,3424 L2242.86879,3424 L2243.02267,3424 L2243.17654,3424 C2243.27986,3423.99124 2243.38317,3423.99124 2243.48649,3424 L2299.54054,3424 C2301.37823,3423.97371 2302.8818,3425.45448 2302.8818,3427.28571 C2302.8818,3429.11695 2301.37823,3430.59771 2299.54054,3430.57143 L2243.48649,3430.57143 C2239.09009,3430.98324 2238.4724,3424.41181 2242.86879,3424 L2242.86879,3424 Z M2329.21622,3443.71429 L2324.16695,3453.52105 L2343.48692,3463.94114 L2349,3453.57143 L2329.21622,3443.71429 Z M2242.86879,3448.64286 L2242.86879,3448.64286 L2243.02267,3448.64286 L2243.17654,3448.64286 C2243.27986,3448.6341 2243.38317,3448.6341 2243.48649,3448.64286 L2299.54054,3448.64286 C2301.37823,3448.61657 2302.8818,3450.09733 2302.8818,3451.92857 C2302.8818,3453.75981 2301.37823,3455.24057 2299.54054,3455.21429 L2243.48649,3455.21429 C2239.09009,3455.6261 2238.4724,3449.05467 2242.86879,3448.64286 L2242.86879,3448.64286 Z M2321.12685,3459.37181 L2299.54054,3501.21429 L2301.18919,3516 L2317.67568,3512.71429 L2340.44681,3469.74371 L2321.12685,3459.37181 Z M2242.86879,3473.28571 L2242.86879,3473.28571 L2243.02267,3473.28571 L2243.17654,3473.28571 C2243.27986,3473.27695 2243.38317,3473.27695 2243.48649,3473.28571 L2299.54054,3473.28571 C2301.37823,3473.25943 2302.8818,3474.74019 2302.8818,3476.57143 C2302.8818,3478.40267 2301.37823,3479.88343 2299.54054,3479.85714 L2243.48649,3479.85714 C2239.09009,3480.26895 2238.4724,3473.69752 2242.86879,3473.28571 L2242.86879,3473.28571 Z" id="Kontraktroller"></path>
        </g>
    </g>
</svg>