<?xml version="1.0" encoding="UTF-8" standalone="no"?>
<svg width="90px" height="129px" viewBox="0 0 90 129" version="1.1" xmlns="http://www.w3.org/2000/svg" xmlns:xlink="http://www.w3.org/1999/xlink">
    <!-- Generator: Sketch 40.3 (33839) - http://www.bohemiancoding.com/sketch -->
    <title>Kontrakter</title>
    <desc>Created with Sketch.</desc>
    <defs></defs>
    <g id="Logo" stroke="none" stroke-width="1" fill="none" fill-rule="evenodd">
        <g id="Artboard-2" transform="translate(-252.000000, -1942.000000)" fill="#000000">
            <path d="M291,1942 C285.476,1942 281.984,1945.476 282,1951 L273,1951 C272.172,1951 271.5,1951.672 271.5,1952.5 L271.5,1967.5 C271.5,1968.328 272.172,1969 273,1969 L321,1969 C321.828,1969 322.5,1968.328 322.5,1967.5 L322.5,1952.5 C322.5,1951.672 321.828,1951 321,1951 L312,1951 C311.984,1945.476 308.524,1942 303,1942 L291,1942 Z M261,1960 C256.016,1960 252,1964.016 252,1969 L252,2062 C252,2066.984 256.016,2071 261,2071 L333,2071 C337.984,2071 342,2066.984 342,2062 L342,1969 C342,1964.016 337.984,1960 333,1960 L325.5,1960 L325.5,1967.5 C325.5,1969.938 323.438,1972 321,1972 L273,1972 C270.562,1972 268.5,1969.938 268.5,1967.5 L268.5,1960 L261,1960 Z M267,1981 L327,1981 C328.656,1981 330,1982.344 330,1984 C330,1985.656 328.656,1987 327,1987 L267,1987 C265.344,1987 264,1985.656 264,1984 C264,1982.344 265.344,1981 267,1981 L267,1981 Z M267,1999 L327,1999 C328.656,1999 330,2000.344 330,2002 C330,2003.656 328.656,2005 327,2005 L267,2005 C265.344,2005 264,2003.656 264,2002 C264,2000.344 265.344,1999 267,1999 L267,1999 Z M267,2017 L327,2017 C328.656,2017 330,2018.344 330,2020 C330,2021.656 328.656,2023 327,2023 L267,2023 C265.344,2023 264,2021.656 264,2020 C264,2018.344 265.344,2017 267,2017 L267,2017 Z M302.016,2032.094 L302.016,2032.094 C303.36,2031.992 304.602,2032.796 305.062,2034.062 L308.812,2044.376 L313.124,2036.64 C314.328,2034.508 317.454,2034.64 318.468,2036.876 L323.438,2048.078 L327,2047.188 C330.876,2046.188 332.376,2052 328.5,2053 L322.5,2054.5 C321.086,2054.852 319.624,2054.14 319.032,2052.812 L315.468,2044.796 L310.876,2053.046 C309.61,2055.282 306.296,2055 305.438,2052.578 L302.062,2043.296 L297.516,2054.218 C297.164,2055.094 296.414,2055.758 295.5,2056 L289.5,2057.5 C285.624,2058.5 284.124,2052.688 288,2051.688 L292.546,2050.562 L299.484,2033.922 C299.922,2032.89 300.898,2032.18 302.016,2032.094 L302.016,2032.094 Z" id="Kontrakter"></path>
        </g>
    </g>
</svg>