<?xml version="1.0" encoding="UTF-8" standalone="no"?>
<svg width="122px" height="171px" viewBox="0 0 122 171" version="1.1" xmlns="http://www.w3.org/2000/svg" xmlns:xlink="http://www.w3.org/1999/xlink">
    <!-- Generator: Sketch 40.3 (33839) - http://www.bohemiancoding.com/sketch -->
    <title>Kontraktforside</title>
    <desc>Created with Sketch.</desc>
    <defs></defs>
    <g id="Logo" stroke="none" stroke-width="1" fill="none" fill-rule="evenodd">
        <path d="M0,0 L0,171 L122,171 L122,32.5714286 L93.5333333,32.5714286 C91.2885333,32.5714286 89.4666667,30.7474286 89.4666667,28.5 L89.4666667,0 L0,0 Z M97.6,4.07142857 L97.6,24.4285714 L117.933333,24.4285714 L97.6,4.07142857 Z M20.3333333,24.4285714 L73.2,24.4285714 C75.4448,24.4285714 77.2666667,26.2525714 77.2666667,28.5 C77.2666667,30.7474286 75.4448,32.5714286 73.2,32.5714286 L20.3333333,32.5714286 C18.0885333,32.5714286 16.2666667,30.7474286 16.2666667,28.5 C16.2666667,26.2525714 18.0885333,24.4285714 20.3333333,24.4285714 L20.3333333,24.4285714 Z M20.3333333,48.8571429 L101.666667,48.8571429 C103.911467,48.8571429 105.733333,50.6811429 105.733333,52.9285714 C105.733333,55.176 103.911467,57 101.666667,57 L20.3333333,57 C18.0885333,57 16.2666667,55.176 16.2666667,52.9285714 C16.2666667,50.6811429 18.0885333,48.8571429 20.3333333,48.8571429 L20.3333333,48.8571429 Z M20.3333333,73.2857143 L101.666667,73.2857143 C103.911467,73.2857143 105.733333,75.1097143 105.733333,77.3571429 C105.733333,79.6045714 103.911467,81.4285714 101.666667,81.4285714 L20.3333333,81.4285714 C18.0885333,81.4285714 16.2666667,79.6045714 16.2666667,77.3571429 C16.2666667,75.1097143 18.0885333,73.2857143 20.3333333,73.2857143 L20.3333333,73.2857143 Z M20.3333333,97.7142857 L101.666667,97.7142857 C103.911467,97.7142857 105.733333,99.5382857 105.733333,101.785714 C105.733333,104.033143 103.911467,105.857143 101.666667,105.857143 L20.3333333,105.857143 C18.0885333,105.857143 16.2666667,104.033143 16.2666667,101.785714 C16.2666667,99.5382857 18.0885333,97.7142857 20.3333333,97.7142857 L20.3333333,97.7142857 Z M66.7828,120.107143 L66.7828,120.107143 C68.6046667,119.968714 70.2882667,121.062571 70.9118222,122.778 L75.9951556,136.775571 L81.8430222,126.276714 C83.4724,123.383286 87.7098667,123.562429 89.0844,126.597 L95.8215111,141.799714 L100.65,140.591857 C105.901422,139.234714 107.934756,147.122429 102.683333,148.479571 L94.55,150.515286 C92.6332444,150.993 90.6541333,150.026714 89.8489333,148.224429 L85.0177333,137.348286 L78.7903111,148.544714 C77.0768889,151.576571 72.5954222,151.193857 71.4215111,147.906857 L66.8451556,135.312571 L60.6828,150.132571 C60.2056444,151.321429 59.1889778,152.222571 57.95,152.551 L49.8166667,154.586714 C44.5652444,155.943857 42.5319111,148.056143 47.7833333,146.699 L53.9456889,145.170857 L63.3505333,122.588 C63.9442667,121.187429 65.2672889,120.223857 66.7828,120.107143 L66.7828,120.107143 Z" id="Kontraktforside" fill="#000000"></path>
    </g>
</svg>