<?xml version="1.0" encoding="UTF-8" standalone="no"?>
<svg width="121px" height="107px" viewBox="0 0 121 107" version="1.1" xmlns="http://www.w3.org/2000/svg" xmlns:xlink="http://www.w3.org/1999/xlink">
    <!-- Generator: Sketch 40.3 (33839) - http://www.bohemiancoding.com/sketch -->
    <title>Økonomi</title>
    <desc>Created with Sketch.</desc>
    <defs></defs>
    <g id="Logo" stroke="none" stroke-width="1" fill="none" fill-rule="evenodd">
        <g id="Artboard-2" transform="translate(-273.000000, -3445.000000)" fill="#000000">
            <g id="Økonomi" transform="translate(273.000000, 3444.000000)">
                <path d="M85.68,44.132 C79.938,44.132 74.57,43.93 69.992,43.578 C71.344,42.578 72.218,41.218 72.218,39.336 L72.218,26.04 C72.218,25.124 71.938,24.29 71.476,23.578 C75.718,23.29 80.554,23.124 85.688,23.124 C102.39,23.124 115.954,24.852 116.118,26.984 C116.118,26.968 116.124,26.954 116.124,26.946 L116.124,40.242 C116.11,42.382 102.484,44.132 85.68,44.132 L85.68,44.132 Z" id="Fill-1"></path>
                <path d="M72.204,62.586 C71.804,61.836 71.21,61.204 70.476,60.774 C70.32,60.68 69.992,60.382 70.078,59.89 C70.102,59.758 70.094,59.618 70.094,59.484 L70.094,49.468 C75.484,50.086 82.624,50.468 90.446,50.468 C107.258,50.468 120.882,48.726 120.882,46.578 L120.882,59.876 C120.882,62.032 107.258,63.774 90.446,63.774 C80.266,63.774 78.016,63.516 73.094,63.078 C72.86,63.046 72.274,62.718 72.204,62.586 L72.204,62.586 Z" id="Fill-2"></path>
                <path d="M86.43,69.86 C103.242,69.86 116.868,68.118 116.868,65.968 L116.868,79.266 C116.868,81.414 103.242,83.164 86.43,83.164 C80.782,83.164 75.5,82.968 70.968,82.624 C72.054,81.664 72.734,80.414 72.734,78.758 L72.734,69.438 C76.852,69.704 81.508,69.86 86.43,69.86 L86.43,69.86 Z" id="Fill-3"></path>
                <path d="M69.258,89.382 C74,89.774 79.624,90 85.672,90 C102.476,90 116.11,88.258 116.11,86.11 L116.11,99.406 C116.11,101.562 102.476,103.304 85.672,103.304 C79.25,103.304 73.29,103.046 68.382,102.618 C68.554,102.14 68.656,101.632 68.688,101.078 L69.258,89.382 Z" id="Fill-4"></path>
                <path d="M32.704,92.992 C49.492,93.812 63.188,91.984 63.29,89.836 L62.64,103.118 C62.54,105.266 48.086,108.61 31.296,107.79 C14.508,106.96 2.5,104.554 2.602,102.406 L2.5,87.618 C2.39,89.766 15.914,92.172 32.704,92.992 L32.704,92.992 Z" id="Fill-5"></path>
                <path d="M5.062,81.016 L5.062,67.718 C5.062,69.876 18.688,71.618 35.5,71.618 C52.312,71.618 65.938,69.876 65.938,67.718 L65.938,81.016 C65.938,83.172 52.312,84.914 35.5,84.914 C18.688,84.914 5.062,83.164 5.062,81.016 L5.062,81.016 Z" id="Fill-6"></path>
                <path d="M31.344,50.828 C48.148,50.828 61.782,49.086 61.782,46.93 L61.782,60.226 C61.782,62.382 48.156,64.124 31.344,64.124 C14.532,64.124 0.906,62.382 0.906,60.226 L0.906,46.93 C0.906,49.086 14.532,50.828 31.344,50.828 L31.344,50.828 Z" id="Fill-7"></path>
                <path d="M3.782,39.328 L3.782,26.032 C3.782,28.18 17.406,29.922 34.218,29.922 C51.032,29.922 64.656,28.18 64.656,26.032 L64.656,39.328 C64.656,41.476 51.024,43.226 34.218,43.226 C17.406,43.226 3.782,41.484 3.782,39.328 L3.782,39.328 Z" id="Fill-8"></path>
                <path d="M32.852,1.828 C49.554,1.828 63.118,3.546 63.282,5.688 C63.282,5.672 63.29,5.664 63.29,5.648 L63.29,18.946 C63.29,21.094 49.656,22.844 32.852,22.844 C16.04,22.844 2.414,21.102 2.414,18.946 L2.414,5.648 C2.414,5.656 2.422,5.672 2.422,5.688 C2.586,3.546 16.14,1.828 32.852,1.828 L32.852,1.828 Z" id="Fill-9"></path>
            </g>
        </g>
    </g>
</svg>