<?xml version="1.0" encoding="UTF-8" standalone="no"?>
<svg width="149px" height="73px" viewBox="0 0 149 73" version="1.1" xmlns="http://www.w3.org/2000/svg" xmlns:xlink="http://www.w3.org/1999/xlink">
    <!-- Generator: Sketch 40.3 (33839) - http://www.bohemiancoding.com/sketch -->
    <title>Organisation</title>
    <desc>Created with Sketch.</desc>
    <defs></defs>
    <g id="Logo" stroke="none" stroke-width="1" fill="none" fill-rule="evenodd">
        <g id="Artboard-2" transform="translate(-252.000000, -2861.000000)" fill="#000000">
            <path d="M288.444,2934 L258.296,2934 C254.844,2934 252,2931.148 252,2927.702 L252,2917.5 C252,2914.046 254.852,2911.202 258.296,2911.202 L270.75,2911.202 L270.75,2898.304 C270.75,2896.952 271.796,2895.756 273.296,2895.756 L324,2895.756 L324,2884.046 L311.398,2884.046 C307.944,2884.046 305.102,2881.194 305.102,2877.75 L305.102,2867.546 C305.102,2864.092 307.952,2861.25 311.398,2861.25 L341.398,2861.25 C344.852,2861.25 347.694,2864.1 347.694,2867.546 L347.694,2877.75 C347.694,2881.202 344.844,2884.046 341.398,2884.046 L328.944,2884.046 L328.944,2895.592 L379.492,2895.592 C380.844,2895.592 382.038,2896.64 382.038,2898.14 L382.038,2911.046 L394.492,2911.046 C397.944,2911.046 400.788,2913.898 400.788,2917.342 L400.788,2927.546 C400.788,2931 397.938,2933.842 394.492,2933.842 L364.352,2933.842 C360.898,2933.842 358.054,2930.992 358.054,2927.546 L358.054,2917.342 C358.054,2913.89 360.906,2911.046 364.352,2911.046 L376.952,2911.046 L376.952,2900.546 L328.944,2900.546 L328.944,2911.046 L341.398,2911.046 C344.852,2911.046 347.694,2913.898 347.694,2917.342 L347.694,2927.546 C347.694,2931 344.844,2933.842 341.398,2933.842 L311.398,2933.842 C307.944,2933.842 305.102,2930.992 305.102,2927.546 L305.102,2917.342 C305.102,2913.89 307.952,2911.046 311.398,2911.046 L324,2911.046 L324,2900.546 L275.694,2900.546 L275.694,2911.046 L288.296,2911.046 C291.75,2911.046 294.594,2913.898 294.594,2917.342 L294.594,2927.546 C294.75,2931.148 291.898,2934 288.444,2934 L288.444,2934 Z" id="Organisation"></path>
        </g>
    </g>
</svg>