<?xml version="1.0" encoding="UTF-8" standalone="no"?>
<svg width="144px" height="99px" viewBox="0 0 144 99" version="1.1" xmlns="http://www.w3.org/2000/svg" xmlns:xlink="http://www.w3.org/1999/xlink">
    <!-- Generator: Sketch 40.3 (33839) - http://www.bohemiancoding.com/sketch -->
    <title>Overlevering</title>
    <desc>Created with Sketch.</desc>
    <defs></defs>
    <g id="Logo" stroke="none" stroke-width="1" fill="none" fill-rule="evenodd">
        <g id="Artboard-2" transform="translate(-1977.000000, -5630.000000)" fill="#000000">
            <g id="Overlevering" transform="translate(1977.000000, 5630.000000)">
                <path d="M142.114181,57.2040816 C140.588345,55.4816327 136.266506,54.9387755 132.79758,55.4653061 C131.073344,55.7285714 105.83364,63.1510204 105.83364,63.1510204 C106.551561,65.3897959 107.735822,69.4877551 103.461026,73.6816327 C100.544348,76.2244898 96.0466078,76.9897959 90.2132499,76.8693878 C84.3880735,76.7591837 78.0699661,75.8489796 73.2040621,75.2428571 C71.6209558,75.0530612 67.2357107,74.4693878 67.2357107,74.4693878 C67.2357107,74.4693878 70.3262449,73.0510204 74.504909,72.9081633 C79.7307959,72.7326531 83.846054,72.7714286 86.2104865,72.9081633 C88.8080898,73.0510204 92.5306393,73.377551 94.0892012,73.4346939 C101.207043,73.6979592 102.90878,69.1367347 102.941506,67.3204082 C103.037638,62.1938776 100.12914,60.4959184 91.1234338,59.7469388 C85.3309831,59.2673469 79.1151435,58.877551 74.7851229,58.3346939 C66.4277947,57.2836735 60.4369444,54.9306122 57.3750451,54.644898 C55.2662822,54.444898 49.80927,53.4244898 44.6242903,57.7061224 C28.907768,70.6836735 0.50594223,78.8142857 0.514123657,78.8306122 C4.79505562,92.9816327 28.4618802,98.2755102 28.4618802,98.2755102 C38.5209453,89.2102041 49.666095,88.0857143 59.1974581,87.7428571 C60.835789,87.6877551 76.8222984,87.6795918 91.5795483,89.4489796 C94.5514519,89.6571429 97.0836037,88.0714286 97.0836037,88.0714286 C119.232773,73.944898 138.111418,66.2040816 138.111418,66.2040816 C142.592794,64.5204082 143.91205,62.5204082 143.840462,60.9816327 C143.711605,58.1836735 142.130544,57.2265306 142.114181,57.2040816 L142.114181,57.2040816 Z" id="Fill-1"></path>
                <path d="M103.456332,48.8040816 C116.965915,48.8040816 127.912665,37.8755102 127.912665,24.4020408 C127.912665,10.922449 116.957733,0 103.456332,0 C89.9447047,0 79,10.9306122 79,24.4020408 C79,37.8836735 89.9447047,48.8040816 103.456332,48.8040816 L103.456332,48.8040816 Z" id="Fill-2"></path>
            </g>
        </g>
    </g>
</svg>