<?xml version="1.0" encoding="UTF-8" standalone="no"?>
<svg width="122px" height="164px" viewBox="0 0 122 164" version="1.1" xmlns="http://www.w3.org/2000/svg" xmlns:xlink="http://www.w3.org/1999/xlink">
    <!-- Generator: Sketch 40.3 (33839) - http://www.bohemiancoding.com/sketch -->
    <title>Projektbeskrivelse</title>
    <desc>Created with Sketch.</desc>
    <defs></defs>
    <g id="Logo" stroke="none" stroke-width="1" fill="none" fill-rule="evenodd">
        <path d="M0,0 L0,164 L122,164 L122,30.5116279 L91.5,30.5116279 L91.5,0 L0,0 Z M99.125,3.81395349 L99.125,22.8837209 L118.1875,22.8837209 L99.125,3.81395349 Z M17.15625,34.3255814 L36.21875,34.3255814 L36.21875,53.3953488 L17.15625,53.3953488 L17.15625,34.3255814 Z M53.375,40.0465116 L104.84375,40.0465116 L104.84375,47.6744186 L53.375,47.6744186 L53.375,40.0465116 Z M24.78125,41.9534884 L24.78125,45.7674419 L28.59375,45.7674419 L28.59375,41.9534884 L24.78125,41.9534884 Z M17.15625,64.8372093 L36.21875,64.8372093 L36.21875,83.9069767 L17.15625,83.9069767 L17.15625,64.8372093 Z M53.375,70.5581395 L104.84375,70.5581395 L104.84375,78.1860465 L53.375,78.1860465 L53.375,70.5581395 Z M24.78125,72.4651163 L24.78125,76.2790698 L28.59375,76.2790698 L28.59375,72.4651163 L24.78125,72.4651163 Z M17.15625,95.3488372 L36.21875,95.3488372 L36.21875,114.418605 L17.15625,114.418605 L17.15625,95.3488372 Z M53.375,101.069767 L104.84375,101.069767 L104.84375,108.697674 L53.375,108.697674 L53.375,101.069767 Z M24.78125,102.976744 L24.78125,106.790698 L28.59375,106.790698 L28.59375,102.976744 L24.78125,102.976744 Z M17.15625,125.860465 L36.21875,125.860465 L36.21875,144.930233 L17.15625,144.930233 L17.15625,125.860465 Z M53.375,131.581395 L104.84375,131.581395 L104.84375,139.209302 L53.375,139.209302 L53.375,131.581395 Z M24.78125,133.488372 L24.78125,137.302326 L28.59375,137.302326 L28.59375,133.488372 L24.78125,133.488372 Z" id="Projektbeskrivelse" fill="#000000"></path>
    </g>
</svg>