<?xml version="1.0" encoding="UTF-8" standalone="no"?>
<svg width="120px" height="115px" viewBox="0 0 120 115" version="1.1" xmlns="http://www.w3.org/2000/svg" xmlns:xlink="http://www.w3.org/1999/xlink">
    <!-- Generator: Sketch 40.3 (33839) - http://www.bohemiancoding.com/sketch -->
    <title>Projektroller</title>
    <desc>Created with Sketch.</desc>
    <defs></defs>
    <g id="Logo" stroke="none" stroke-width="1" fill="none" fill-rule="evenodd">
        <g id="Projektroller" transform="translate(-1.000000, 0.000000)" fill="#000000">
            <path d="M16.9491594,76.0910769 C16.9703768,76.1123077 16.9968986,76.1176154 17.0110435,76.1317692 C17.1631014,76.2697692 17.3363768,76.3953846 17.5291014,76.4785385 C17.7501159,76.567 17.9782029,76.6165385 18.2133623,76.6165385 C18.4485217,76.6165385 18.6748406,76.567 18.8976232,76.4785385 C19.0903478,76.3953846 19.2636232,76.2768462 19.413913,76.1317692 C19.4351304,76.1123077 19.4634203,76.1123077 19.4775652,76.0910769 L26.5005217,69.0619231 C27.1989275,68.3648462 27.1989275,67.2307692 26.5005217,66.5319231 C25.8038841,65.8348462 24.6705217,65.8348462 23.9668116,66.5319231 L19.9956232,70.5073846 L19.9956232,50.761 L53.9964928,50.761 C54.9848696,50.761 55.7858261,49.9595385 55.7858261,48.9723077 L55.7858261,34.4522308 L59.2035942,34.4522308 L59.2035942,70.5003077 L55.2324058,66.5266154 C54.5357681,65.8277692 53.4024058,65.8277692 52.6986957,66.5266154 C52.0002899,67.2236923 52.0002899,68.3648462 52.6986957,69.0619231 L59.7216522,76.0910769 C59.8878551,76.2573846 60.0805797,76.3883077 60.3015942,76.4785385 C60.5226087,76.567 60.7506957,76.6165385 60.9858551,76.6165385 C61.2210145,76.6165385 61.4491014,76.567 61.6701159,76.4785385 C61.8911304,76.3883077 62.0838551,76.2573846 62.250058,76.0910769 L69.2747826,69.0619231 C69.9714203,68.3648462 69.9714203,67.2307692 69.2747826,66.5266154 C68.5763768,65.8277692 67.4447826,65.8277692 66.7393043,66.5266154 L62.7681159,70.5003077 L62.7681159,34.4522308 L66.1876522,34.4522308 L66.1876522,48.9723077 C66.1876522,49.9595385 66.9886087,50.761 67.9752174,50.761 L101.984928,50.761 L101.984928,70.5003077 L98.0137391,66.5266154 C97.3224058,65.8277692 96.181971,65.8277692 95.4853333,66.5266154 C94.7869275,67.2236923 94.7869275,68.3577692 95.4853333,69.0548462 L102.510058,76.084 C102.674493,76.2503077 102.868986,76.3812308 103.09,76.4714615 C103.311014,76.5599231 103.539101,76.6094615 103.772493,76.6094615 C104.007652,76.6094615 104.242812,76.5599231 104.456754,76.4714615 C104.677768,76.3812308 104.870493,76.2503077 105.036696,76.084 L112.06142,69.0548462 C112.758058,68.3577692 112.758058,67.2236923 112.06142,66.5266154 C111.363014,65.8277692 110.224348,65.8277692 109.533014,66.5266154 L105.561826,70.5003077 L105.561826,48.9723077 C105.561826,47.9833077 104.76087,47.1818462 103.772493,47.1818462 L69.7857681,47.1818462 L69.7857681,34.4522308 L77.8872754,34.4522308 L77.8872754,0.656384615 L44.1127246,0.656384615 L44.1127246,34.4522308 L52.2142319,34.4522308 L52.2142319,47.1818462 L18.2133623,47.1818462 C17.2249855,47.1818462 16.424029,47.9833077 16.424029,48.9723077 L16.424029,70.5003077 L12.4528406,66.5266154 C11.7544348,65.8277692 10.6157681,65.8277692 9.91736232,66.5266154 C9.22072464,67.2236923 9.22072464,68.3577692 9.91736232,69.0548462 L16.9491594,76.0910769 Z" id="Fill-1"></path>
            <polygon id="Fill-2" points="44.1127246 114.343615 77.8872754 114.343615 77.8872754 80.5477692 44.1127246 80.5477692"></polygon>
            <polygon id="Fill-3" points="86.8993623 114.343615 120.673913 114.343615 120.673913 80.5477692 86.8993623 80.5477692"></polygon>
            <polygon id="Fill-4" points="1.32608696 114.343615 35.1006377 114.343615 35.1006377 80.5477692 1.32608696 80.5477692"></polygon>
        </g>
    </g>
</svg>