<?xml version="1.0" encoding="UTF-8" standalone="no"?>
<svg width="106px" height="140px" viewBox="0 0 106 140" version="1.1" xmlns="http://www.w3.org/2000/svg" xmlns:xlink="http://www.w3.org/1999/xlink">
    <!-- Generator: Sketch 40.3 (33839) - http://www.bohemiancoding.com/sketch -->
    <title>Projekforside</title>
    <desc>Created with Sketch.</desc>
    <defs></defs>
    <g id="Logo" stroke="none" stroke-width="1" fill="none" fill-rule="evenodd">
        <g id="Artboard-2" transform="translate(-1993.000000, -5303.000000)" fill="#000000">
            <path d="M2015.31579,5319.73684 L2015.31579,5314.15789 L2020.89474,5314.15789 L2020.89474,5308.57895 L2093.42105,5308.57895 L2093.42105,5420.15789 L2087.84211,5420.15789 L2087.84211,5425.73684 L2082.26316,5425.73684 L2082.26316,5319.73684 L2015.31579,5319.73684 L2015.31579,5303 L2099,5303 L2099,5425.73684 L2082.26316,5425.73684 L2082.26316,5442.47368 L1993,5442.47368 L1993,5319.73684 L2015.31579,5319.73684 Z M2009.73684,5336.47368 L2065.52632,5336.47368 L2065.52632,5342.05263 L2009.73684,5342.05263 L2009.73684,5336.47368 Z M2009.73684,5353.21053 L2065.52632,5353.21053 L2065.52632,5358.78947 L2009.73684,5358.78947 L2009.73684,5353.21053 Z M2009.73684,5369.94737 L2065.52632,5369.94737 L2065.52632,5375.52632 L2009.73684,5375.52632 L2009.73684,5369.94737 Z M2009.73684,5386.68421 L2065.52632,5386.68421 L2065.52632,5392.26316 L2009.73684,5392.26316 L2009.73684,5386.68421 Z M2009.73684,5403.42105 L2065.52632,5403.42105 L2065.52632,5409 L2009.73684,5409 L2009.73684,5403.42105 Z M2009.73684,5420.15789 L2065.52632,5420.15789 L2065.52632,5425.73684 L2009.73684,5425.73684 L2009.73684,5420.15789 Z" id="Projekforside"></path>
        </g>
    </g>
</svg>