<?xml version="1.0" encoding="UTF-8" standalone="no"?>
<svg width="135px" height="124px" viewBox="0 0 135 124" version="1.1" xmlns="http://www.w3.org/2000/svg" xmlns:xlink="http://www.w3.org/1999/xlink">
    <!-- Generator: Sketch 40.3 (33839) - http://www.bohemiancoding.com/sketch -->
    <title>Risiko</title>
    <desc>Created with Sketch.</desc>
    <defs></defs>
    <g id="Logo" stroke="none" stroke-width="1" fill="none" fill-rule="evenodd">
        <g id="Artboard-2" transform="translate(-252.000000, -4045.000000)" fill="#000000">
            <path d="M254.531833,4169 L384.475833,4169 C385.367833,4169 386.195833,4168.53 386.647833,4167.758 C387.101833,4166.992 387.117833,4166.038 386.687833,4165.25 L321.709833,4047.124 C321.273833,4046.312 320.421833,4045.812 319.499833,4045.812 C318.577833,4045.812 317.725833,4046.312 317.289833,4047.124 L252.311833,4165.25 C251.881833,4166.03 251.897833,4166.984 252.351833,4167.758 C252.803833,4168.524 253.631833,4169 254.531833,4169 L254.531833,4169 Z M315.171833,4092.422 C315.171833,4090.03 317.117833,4088.094 319.499833,4088.094 C321.889833,4088.094 323.827833,4090.038 323.827833,4092.422 L323.827833,4131.038 C323.827833,4133.43 321.881833,4135.366 319.499833,4135.366 C317.109833,4135.366 315.171833,4133.422 315.171833,4131.038 L315.171833,4092.422 Z M319.499833,4142.688 C323.085833,4142.688 325.999833,4145.602 325.999833,4149.188 C325.999833,4152.774 323.085833,4155.688 319.499833,4155.688 C315.913833,4155.688 312.999833,4152.774 312.999833,4149.188 C312.999833,4145.61 315.913833,4142.688 319.499833,4142.688 L319.499833,4142.688 Z" id="Risiko"></path>
        </g>
    </g>
</svg>