<?xml version="1.0" encoding="UTF-8" standalone="no"?>
<svg width="96px" height="136px" viewBox="0 0 96 136" version="1.1" xmlns="http://www.w3.org/2000/svg" xmlns:xlink="http://www.w3.org/1999/xlink">
    <!-- Generator: Sketch 40.3 (33839) - http://www.bohemiancoding.com/sketch -->
    <title>Slet</title>
    <desc>Created with Sketch.</desc>
    <defs></defs>
    <g id="Logo" stroke="none" stroke-width="1" fill="none" fill-rule="evenodd">
        <g id="Artboard-2" transform="translate(-292.000000, -5536.000000)" fill="#000000">
            <g id="Slet" transform="translate(292.000000, 5535.000000)">
                <path d="M64.21,9.438 C60.586,4.624 54.844,1.5 48.352,1.5 C41.86,1.5 36.118,4.624 32.5,9.438 L0.704,9.438 L1.82,18.352 L94.882,18.352 L96,9.438 L64.21,9.438 Z" id="Fill-1"></path>
                <path d="M16.586,136.5 L80.118,136.5 L94.132,24.352 L2.57,24.352 L16.586,136.5 Z M76.258,31.156 L82.218,31.844 L70.968,129.344 L65.008,128.656 L76.258,31.156 Z M46.234,31.5 L52.234,31.5 L52.234,129 L46.234,129 L46.234,31.5 Z M33.468,128.656 L27.508,129.344 L16.258,31.844 L22.218,31.156 L33.468,128.656 Z" id="Fill-2"></path>
            </g>
        </g>
    </g>
</svg>