<?xml version="1.0" encoding="UTF-8" standalone="no"?>
<svg width="150px" height="150px" viewBox="0 0 150 150" version="1.1" xmlns="http://www.w3.org/2000/svg" xmlns:xlink="http://www.w3.org/1999/xlink">
    <!-- Generator: Sketch 40.3 (33839) - http://www.bohemiancoding.com/sketch -->
    <title>Snitfladedetaljer</title>
    <desc>Created with Sketch.</desc>
    <defs></defs>
    <g id="Logo" stroke="none" stroke-width="1" fill="none" fill-rule="evenodd">
        <g id="Artboard-2" transform="translate(-1971.000000, -5004.000000)" fill="#000000">
            <g id="Snitfladedetaljer" transform="translate(1971.000000, 5004.000000)">
                <g id="Snitflader-Copy">
                    <polygon id="Fill-1" points="0 68.75 6.25 68.75 6.25 62.5 0 62.5"></polygon>
                    <polygon id="Fill-2" points="0 56.25 6.25 56.25 6.25 50 0 50"></polygon>
                    <polygon id="Fill-3" points="81.25 150 87.5 150 87.5 143.75 81.25 143.75"></polygon>
                    <polygon id="Fill-4" points="0 93.75 6.25 93.75 6.25 87.5 0 87.5"></polygon>
                    <polygon id="Fill-5" points="0 81.25 6.25 81.25 6.25 75 0 75"></polygon>
                    <polygon id="Fill-6" points="0 131.25 6.25 131.25 6.25 125 0 125"></polygon>
                    <polygon id="Fill-7" points="6.25 143.75 6.25 137.5 0 137.5 0 150 12.5 150 12.5 143.75"></polygon>
                    <polygon id="Fill-8" points="106.25 137.5 112.5 137.5 112.5 131.25 106.25 131.25"></polygon>
                    <polygon id="Fill-9" points="93.75 150 100 150 100 143.75 93.75 143.75"></polygon>
                    <polygon id="Fill-10" points="106.25 150 112.5 150 112.5 143.75 106.25 143.75"></polygon>
                    <polygon id="Fill-11" points="68.75 150 75 150 75 143.75 68.75 143.75"></polygon>
                    <polygon id="Fill-12" points="106.25 125 112.5 125 112.5 118.75 106.25 118.75"></polygon>
                    <polygon id="Fill-13" points="31.25 150 37.5 150 37.5 143.75 31.25 143.75"></polygon>
                    <polygon id="Fill-14" points="56.25 150 62.5 150 62.5 143.75 56.25 143.75"></polygon>
                    <polygon id="Fill-15" points="18.75 150 25 150 25 143.75 18.75 143.75"></polygon>
                    <polygon id="Fill-16" points="43.75 150 50 150 50 143.75 43.75 143.75"></polygon>
                    <polygon id="Fill-17" points="0 118.75 6.25 118.75 6.25 112.5 0 112.5"></polygon>
                    <polygon id="Fill-18" points="0 106.25 6.25 106.25 6.25 100 0 100"></polygon>
                    <polygon id="Fill-19" points="12.5 43.75 18.75 43.75 18.75 37.5 12.5 37.5"></polygon>
                    <polygon id="Fill-20" points="25 43.75 31.25 43.75 31.25 37.5 25 37.5"></polygon>
                    <polygon id="Fill-21" points="0 43.75 6.25 43.75 6.25 37.5 0 37.5"></polygon>
                    <polygon id="Fill-22" points="37.5 31.25 37.5 43.75 106.25 43.75 106.25 112.5 150 112.5 150 0 37.5 0"></polygon>
                </g>
                <path d="M59.578,57 C56.34,57 53.719,59.621 53.719,62.859 C53.719,66.098 56.34,68.719 59.578,68.719 C62.817,68.719 65.438,66.098 65.438,62.859 C65.438,59.621 62.817,57 59.578,57 L59.578,57 Z M51.375,73.406 C46.219,73.406 42,77.625 42,82.781 L42,85.125 L44.344,85.125 L44.344,82.781 C44.344,80.906 45.985,79.266 47.86,79.266 C49.735,79.266 51.375,81.141 51.375,82.781 C51.375,84.422 42,117.469 42,122.625 C42,127.781 46.219,132 51.375,132 C56.531,132 60.75,127.781 60.75,122.625 L60.75,120.281 L58.407,120.281 L58.407,122.625 C58.407,124.5 56.766,126.141 54.891,126.141 C53.016,126.141 51.375,124.5 51.375,122.625 C51.375,120.75 60.75,87.469 60.75,82.781 C60.75,78.094 56.531,73.406 51.375,73.406 L51.375,73.406 Z" id="Page-1"></path>
            </g>
        </g>
    </g>
</svg>