<?xml version="1.0" encoding="UTF-8" standalone="no"?>
<svg width="135px" height="135px" viewBox="0 0 135 135" version="1.1" xmlns="http://www.w3.org/2000/svg" xmlns:xlink="http://www.w3.org/1999/xlink">
    <!-- Generator: Sketch 40.3 (33839) - http://www.bohemiancoding.com/sketch -->
    <title>Stamdata</title>
    <desc>Created with Sketch.</desc>
    <defs></defs>
    <g id="Logo" stroke="none" stroke-width="1" fill="none" fill-rule="evenodd">
        <g id="Artboard-2" transform="translate(-252.000000, -5239.000000)" fill="#000000">
            <path d="M252,5374 L387,5374 L387,5239 L252,5239 L252,5374 Z M281.546,5281.75 C281.546,5280.102 282.898,5278.602 284.696,5278.602 L354.446,5278.602 C356.094,5278.602 357.594,5279.954 357.594,5281.75 L357.594,5283.25 C357.594,5284.898 356.242,5286.398 354.446,5286.398 L284.546,5286.398 C282.898,5286.398 281.398,5285.046 281.398,5283.25 L281.398,5281.75 L281.546,5281.75 Z M281.546,5305.75 C281.546,5304.102 282.898,5302.602 284.696,5302.602 L354.446,5302.602 C356.094,5302.602 357.594,5303.954 357.594,5305.75 L357.594,5307.25 C357.594,5308.898 356.242,5310.398 354.446,5310.398 L284.546,5310.398 C282.898,5310.398 281.398,5309.046 281.398,5307.25 L281.398,5305.75 L281.546,5305.75 Z M281.546,5329.898 C281.546,5328.25 282.898,5326.75 284.696,5326.75 L354.446,5326.75 C356.094,5326.75 357.594,5328.102 357.594,5329.898 L357.594,5331.398 C357.594,5333.046 356.242,5334.546 354.446,5334.546 L284.546,5334.546 C282.898,5334.546 281.398,5333.196 281.398,5331.398 L281.398,5329.898 L281.546,5329.898 Z" id="Stamdata"></path>
        </g>
    </g>
</svg>