<?xml version="1.0" encoding="UTF-8" standalone="no"?>
<svg width="121px" height="120px" viewBox="0 0 121 120" version="1.1" xmlns="http://www.w3.org/2000/svg" xmlns:xlink="http://www.w3.org/1999/xlink">
    <!-- Generator: Sketch 40.3 (33839) - http://www.bohemiancoding.com/sketch -->
    <title>Status-mål</title>
    <desc>Created with Sketch.</desc>
    <defs></defs>
    <g id="Logo" stroke="none" stroke-width="1" fill="none" fill-rule="evenodd">
        <g id="Status-mål" transform="translate(0.000000, -1.000000)" fill="#000000">
            <path d="M70.3208,68.0272 L61.44408,76.16704 C61.16592,76.41592 60.8796267,76.6761867 60.5868267,76.9494667 C59.4497867,83.2462933 53.9272533,88.03032 47.30672,88.03032 C39.8663467,88.03032 33.8167733,81.9807467 33.8167733,74.5403733 C33.8167733,67.6839733 38.95704,62.01016 45.58408,61.1594133 C45.7125867,61.01952 45.8394667,60.8796267 45.95984,60.7397333 L49.4864533,56.7869333 L49.5694133,56.81296 C51.1196267,55.1163467 52.9105867,53.17248 54.29,51.65968 C52.0858667,50.98624 49.7402133,50.6234933 47.3132267,50.6234933 C34.1274667,50.6234933 23.3963467,61.3497333 23.3963467,74.5403733 C23.3963467,87.7261333 34.1225867,98.4572533 47.3132267,98.4572533 C60.49736,98.4572533 71.2301067,87.73264 71.2301067,74.5403733 C71.2236,72.2793067 70.9064,70.0930667 70.3208,68.0272 L70.3208,68.0272 Z" id="Fill-1"></path>
            <path d="M87.8025867,52.01592 C85.1332267,54.4429067 82.4703733,56.8829067 79.8400533,59.3033867 C82.0197867,63.9296267 83.23328,69.09592 83.23328,74.5403733 C83.23328,94.3466667 67.11952,110.460427 47.3132267,110.460427 C27.5069333,110.460427 11.3866667,94.34016 11.3866667,74.5338667 C11.3866667,54.7292 27.5004267,38.6138133 47.30672,38.6138133 C52.9170933,38.6138133 58.2297867,39.90376 62.9633867,42.2103733 C65.37248,39.58656 67.8059733,36.9302133 70.2264533,34.26736 C63.4660267,30.4040267 55.6433867,28.1933867 47.3132267,28.1933867 C21.7631733,28.1933867 0.972746667,48.9838133 0.972746667,74.5338667 C0.972746667,100.08392 21.7631733,120.875973 47.3132267,120.875973 C72.86328,120.875973 93.6537067,100.08392 93.6537067,74.5338667 C93.6537067,66.36312 91.5260267,58.6803733 87.8025867,52.01592 L87.8025867,52.01592 Z" id="Fill-2"></path>
            <path d="M120.773493,23.0791467 C120.57016,22.5439733 120.283867,22.08688 119.91624,21.7241333 C118.936987,20.7465067 117.653547,20.61312 116.40752,20.61312 C114.603547,20.61312 112.80608,20.6001067 111.006987,20.5870933 C108.22376,20.5692 105.346187,20.54968 102.512533,20.57408 C102.320587,20.57408 102.193707,20.5626933 102.12376,20.5561867 L101.97248,20.19344 L101.609733,20.0405333 C101.59672,19.96408 101.583707,19.8437067 101.590213,19.6533867 C101.61624,16.8197333 101.59672,13.9405333 101.5772,11.1573067 C101.565813,9.35984 101.5528,7.55586667 101.5528,5.75677333 C101.5528,4.51074667 101.419413,3.22730667 100.44016,2.24968 C100.077413,1.88693333 99.62032,1.59413333 99.0802667,1.3908 C96.7736533,0.520533333 95.2299467,2.07725333 94.4930667,2.82714667 C93.2340267,4.10408 91.9701067,5.37613333 90.7061867,6.65306667 C87.8139733,9.56317333 84.8274133,12.5692533 81.94984,15.5997333 C81.0161333,16.5903733 80.35408,18.2105333 80.3166667,19.6338667 C80.2532267,21.83312 80.26624,24.06328 80.2841333,26.2169867 C80.2971467,28.1803733 80.3166667,30.2072 80.2727467,32.1901067 C80.2597333,32.83264 79.92952,33.6703733 79.50984,34.14048 C74.5908,39.5930667 69.54,45.09608 64.6534933,50.4136533 L60.6307467,54.7991467 C58.4705333,57.1626933 53.3628,62.72752 51.6466667,64.59656 L51.6336533,64.5900533 L51.0431733,65.25048 C50.6560267,65.6831733 50.2363467,66.1402667 49.7971467,66.6298933 C48.4258667,68.1361867 46.86752,69.8458133 45.4197867,71.6937067 C44.3770933,73.03408 44.9366667,75.0169867 46.0802133,76.16704 C46.1241333,76.2125867 46.1631733,76.25 46.2070933,76.2874133 C47.2937067,77.2731733 49.0993067,77.8392533 50.4836,76.7591467 C52.37704,75.2772533 54.1126933,73.6896267 55.6433867,72.2858133 C56.0939733,71.87264 56.52016,71.47736 56.9333333,71.1097333 L71.7636533,57.5108 C77.0828533,52.62592 82.5858667,47.5734933 88.0368267,42.65608 C88.5069333,42.2364 89.3462933,41.9061867 89.9872,41.8931733 C91.9701067,41.8427467 93.9969333,41.86064 95.96032,41.88016 C98.1140267,41.89968 100.345813,41.9126933 102.54344,41.8492533 C103.966773,41.8037067 105.586933,41.1497867 106.58408,40.2095733 C109.616187,37.3303733 112.62064,34.3438133 115.530747,31.4532267 C116.8028,30.1893067 118.079733,28.92376 119.356667,27.6663467 C120.08704,26.9294667 121.64376,25.3841333 120.773493,23.0791467 L120.773493,23.0791467 Z" id="Fill-3"></path>
        </g>
    </g>
</svg>