<?xml version="1.0" encoding="UTF-8" standalone="no"?>
<svg width="110px" height="75px" viewBox="0 0 110 75" version="1.1" xmlns="http://www.w3.org/2000/svg" xmlns:xlink="http://www.w3.org/1999/xlink">
    <!-- Generator: Sketch 40.3 (33839) - http://www.bohemiancoding.com/sketch -->
    <title>Status-projekt</title>
    <desc>Created with Sketch.</desc>
    <defs></defs>
    <g id="Logo" stroke="none" stroke-width="1" fill="none" fill-rule="evenodd">
        <path d="M54.7991467,0.921948832 C24.5333867,0.921948832 0,26.7843222 0,58.6816288 C0,64.4074955 1.49328,69.7510955 2.96053333,74.9743222 C3.20290667,75.0052288 106.36936,75.0117355 106.636133,74.9743222 C108.059467,69.8340555 109.596667,64.3050155 109.596667,58.6816288 C109.596667,26.7843222 85.06328,0.921948832 54.7991467,0.921948832 L54.7991467,0.921948832 Z M100.71344,63.1240555 L68.12968,63.1240555 L35.54592,24.6176022 L29.6232267,21.6570688 L44.4340267,63.1240555 L8.88973333,63.1240555 L8.88973333,51.2737888 C8.88973333,28.3719488 29.44592,9.8051755 54.8040267,9.8051755 C80.16376,9.8051755 100.719947,28.3719488 100.719947,51.2737888 C100.71344,55.6251222 100.71344,63.1240555 100.71344,63.1240555 L100.71344,63.1240555 Z" id="Status-projekt" fill="#000000"></path>
    </g>
</svg>