<?xml version="1.0" standalone="no"?>
<!DOCTYPE svg PUBLIC "-//W3C//DTD SVG 20010904//EN"
 "http://www.w3.org/TR/2001/REC-SVG-20010904/DTD/svg10.dtd">
<svg version="1.0" xmlns="http://www.w3.org/2000/svg"
 width="2000.000000pt" height="2000.000000pt" viewBox="0 0 2000.000000 2000.000000"
 preserveAspectRatio="xMidYMid meet">
<metadata>
Created by potrace 1.15, written by Peter Selinger 2001-2017
</metadata>
<g transform="translate(0.000000,2000.000000) scale(0.100000,-0.100000)"
fill="#000000" stroke="none">
<path d="M9510 19930 c-1207 -59 -2362 -323 -3458 -789 -2107 -898 -3867
-2534 -4922 -4576 -875 -1692 -1243 -3596 -1065 -5510 186 -2002 979 -3898
2274 -5445 418 -499 954 -1020 1464 -1424 1063 -841 2307 -1462 3617 -1806
1673 -439 3421 -439 5090 0 1522 401 2902 1146 4100 2213 172 154 611 593 762
762 982 1106 1689 2359 2109 3743 775 2556 489 5343 -788 7670 -1155 2107
-3060 3749 -5290 4561 -924 337 -1783 517 -2813 591 -197 15 -864 20 -1080 10z
m1055 -1499 c230 -19 435 -42 645 -73 1655 -243 3200 -975 4440 -2102 126
-114 453 -443 579 -581 773 -849 1369 -1857 1735 -2935 234 -687 367 -1329
433 -2090 22 -258 25 -999 5 -1245 -64 -782 -187 -1401 -416 -2090 -290 -872
-703 -1659 -1257 -2395 -175 -233 -257 -332 -269 -328 -5 2 -312 304 -682 673
-843 838 -2066 2054 -3093 3075 -1303 1295 -2403 2389 -3255 3235 -443 441
-1527 1518 -2410 2395 -883 877 -1807 1796 -2055 2043 l-450 448 26 22 c390
330 894 674 1361 930 1069 586 2281 940 3483 1017 94 6 193 12 220 14 98 7
832 -3 960 -13z m-6448 -3671 c351 -349 996 -990 1433 -1425 437 -434 1166
-1159 1620 -1610 454 -452 1541 -1531 2415 -2400 875 -868 1966 -1953 2425
-2410 459 -456 1197 -1190 1640 -1630 1584 -1575 1760 -1750 1760 -1756 0 -10
-232 -196 -409 -328 -1166 -866 -2539 -1417 -3980 -1596 -398 -49 -577 -59
-1046 -60 -448 0 -581 6 -940 46 -1596 176 -3099 797 -4345 1794 -490 393
-977 883 -1366 1375 -1010 1277 -1627 2822 -1779 4455 -49 528 -45 1136 11
1665 164 1568 763 3059 1727 4299 123 158 178 222 188 219 5 -2 295 -289 646
-638z"/>
</g>
</svg>
