<?xml version="1.0" encoding="UTF-8" standalone="no"?>
<svg width="122px" height="124px" viewBox="0 0 122 124" version="1.1" xmlns="http://www.w3.org/2000/svg" xmlns:xlink="http://www.w3.org/1999/xlink">
    <!-- Generator: Sketch 40.3 (33839) - http://www.bohemiancoding.com/sketch -->
    <title>Strategi</title>
    <desc>Created with Sketch.</desc>
    <defs></defs>
    <g id="Logo" stroke="none" stroke-width="1" fill="none" fill-rule="evenodd">
        <g id="Strategi" transform="translate(0.000000, -1.000000)" fill="#000000">
            <path d="M18.36,60.382 C18.508,60.132 18.516,59.906 18.382,59.648 C17.468,57.882 16.984,55.898 16.984,53.89 C16.984,46.992 22.602,41.376 29.5,41.376 C36.398,41.376 42.016,46.992 42.016,53.89 C42.016,55.89 41.532,57.882 40.618,59.648 C40.484,59.906 40.492,60.132 40.64,60.382 C40.796,60.632 40.992,60.75 41.29,60.75 L58.89,60.75 L58.89,33.25 C58.89,31.618 59.618,30.14 60.86,29.148 C61.07,28.984 61.282,28.828 61.516,28.696 C63.14,27.758 65.156,27.766 66.774,28.704 C67.766,29.282 68.898,29.578 70.046,29.578 C73.648,29.578 76.586,26.64 76.586,23.04 C76.586,19.438 73.648,16.5 70.046,16.5 C68.898,16.5 67.766,16.804 66.774,17.376 C65.156,18.312 63.14,18.32 61.516,17.382 C61.282,17.25 61.062,17.094 60.86,16.93 C59.618,15.938 58.89,14.46 58.89,12.828 L58.89,1.96 L0.11,1.96 L0.11,60.742 L17.71,60.742 C18.008,60.75 18.204,60.632 18.36,60.382 L18.36,60.382 Z" id="Fill-1"></path>
            <path d="M57.852,106.516 L57.64,106.516 C56.516,106.516 55.602,106.796 54.68,107.43 C52.624,108.836 50.218,109.578 47.734,109.578 C40.93,109.578 35.398,104.04 35.398,97.234 C35.398,90.43 40.93,84.898 47.734,84.898 C50.226,84.898 52.632,85.64 54.68,87.046 C55.602,87.68 56.524,87.96 57.64,87.96 L57.852,87.96 C58.258,87.96 58.61,87.618 58.61,87.21 L58.61,65.25 L41.29,65.25 C39.414,65.25 37.774,64.328 36.796,62.726 C35.82,61.124 35.758,59.25 36.624,57.578 C37.218,56.438 37.524,55.196 37.524,53.898 C37.524,49.476 33.93,45.882 29.508,45.882 C25.086,45.882 21.492,49.476 21.492,53.898 C21.492,55.196 21.79,56.438 22.382,57.578 C23.25,59.242 23.188,61.118 22.21,62.726 C21.234,64.336 19.602,65.258 17.718,65.258 L0.11,65.258 L0.11,124.04 L58.61,124.04 L58.61,107.282 C58.61,106.86 58.266,106.516 57.852,106.516 L57.852,106.516 Z" id="Fill-2"></path>
            <path d="M63.39,1.96 L63.39,12.836 C63.39,13.14 63.508,13.336 63.766,13.492 C64.024,13.64 64.258,13.64 64.524,13.492 C66.196,12.524 68.11,12.008 70.054,12.008 C76.14,12.008 81.094,16.96 81.094,23.046 C81.094,29.132 76.14,34.086 70.054,34.086 C68.118,34.086 66.204,33.57 64.524,32.602 C64.266,32.454 64.024,32.454 63.766,32.602 C63.508,32.75 63.39,32.954 63.39,33.258 L63.39,60.75 L82.446,60.75 C82.71,60.742 82.898,60.632 83.046,60.398 C83.204,60.156 83.21,59.93 83.078,59.664 C82.96,59.422 82.82,59.188 82.64,58.93 C81.242,56.882 80.5,54.484 80.5,51.984 C80.5,45.18 86.032,39.648 92.836,39.648 C99.64,39.648 105.172,45.18 105.172,51.984 C105.172,54.476 104.43,56.876 103.032,58.93 C102.86,59.188 102.71,59.43 102.594,59.664 C102.468,59.914 102.476,60.14 102.632,60.382 C102.782,60.618 102.968,60.726 103.234,60.734 L121.882,60.734 L121.882,1.96 L63.39,1.96 Z" id="Fill-3"></path>
            <path d="M98.82,62.774 C98.422,62.132 98.18,61.446 98.078,60.742 C98.046,60.5 98.024,60.258 98.024,60.016 L98.024,59.914 C98.024,59.704 98.046,59.5 98.07,59.29 C98.078,59.234 98.086,59.18 98.094,59.124 C98.124,58.938 98.172,58.742 98.226,58.554 C98.242,58.492 98.258,58.438 98.274,58.376 C98.352,58.132 98.446,57.898 98.562,57.664 C98.766,57.258 99.016,56.836 99.312,56.398 C100.204,55.094 100.672,53.57 100.672,51.984 C100.672,47.664 97.156,44.148 92.836,44.148 C88.516,44.148 85,47.664 85,51.984 C85,53.57 85.468,55.094 86.36,56.39 C86.656,56.828 86.906,57.242 87.11,57.664 C87.226,57.898 87.32,58.132 87.398,58.376 C87.414,58.43 87.43,58.492 87.446,58.546 C87.5,58.734 87.546,58.93 87.578,59.118 C87.586,59.172 87.594,59.218 87.602,59.274 C87.632,59.484 87.648,59.696 87.648,59.906 L87.648,60 C87.648,60.242 87.632,60.492 87.594,60.734 C87.492,61.438 87.25,62.118 86.852,62.758 C85.876,64.336 84.242,65.242 82.39,65.242 L63.11,65.242 L63.11,87.188 C63.11,90.086 60.75,92.438 57.852,92.438 L57.64,92.438 C55.618,92.438 53.812,91.882 52.14,90.742 C50.836,89.852 49.312,89.382 47.726,89.382 C43.406,89.382 39.89,92.898 39.89,97.218 C39.89,101.546 43.406,105.062 47.726,105.062 C49.312,105.062 50.836,104.594 52.14,103.704 C53.812,102.562 55.61,102 57.64,102 L57.852,102 C60.75,102 63.11,104.36 63.11,107.258 L63.11,124.024 L121.89,124.024 L121.89,65.258 L103.282,65.258 C101.43,65.258 99.796,64.352 98.82,62.774 L98.82,62.774 Z" id="Fill-4"></path>
        </g>
    </g>
</svg>