<?xml version="1.0" encoding="UTF-8" standalone="no"?>
<svg width="139px" height="139px" viewBox="0 0 139 139" version="1.1" xmlns="http://www.w3.org/2000/svg" xmlns:xlink="http://www.w3.org/1999/xlink">
    <!-- Generator: Sketch 40.3 (33839) - http://www.bohemiancoding.com/sketch -->
    <title>Systemroller</title>
    <desc>Created with Sketch.</desc>
    <defs></defs>
    <g id="Logo" stroke="none" stroke-width="1" fill="none" fill-rule="evenodd">
        <g id="Artboard-2" transform="translate(-1982.000000, -4720.000000)" fill="#000000">
            <path d="M2098.4427,4720 C2085.99961,4720 2075.90541,4730.09421 2075.90541,4742.5373 C2075.90541,4744.55313 2076.16834,4746.48884 2076.66917,4748.34691 L2022.67231,4776.16795 C2018.57303,4770.58121 2011.99965,4766.9527 2004.5373,4766.9527 C1992.09421,4766.9527 1982,4777.04691 1982,4789.49 C1982,4801.93309 1992.09421,4812.0273 2004.5373,4812.0273 C2011.99965,4812.0273 2018.57303,4808.39879 2022.67231,4802.81205 L2076.66917,4830.63309 C2076.16834,4832.49116 2075.90541,4834.42687 2075.90541,4836.4427 C2075.90541,4848.88579 2085.99961,4858.98 2098.4427,4858.98 C2110.88579,4858.98 2120.98,4848.88579 2120.98,4836.4427 C2120.98,4823.99961 2110.88579,4813.90541 2098.4427,4813.90541 C2090.69488,4813.90541 2083.89613,4817.80937 2079.83691,4823.76673 L2026.07795,4796.12097 C2026.72151,4794.02 2027.07459,4791.80884 2027.07459,4789.49 C2027.07459,4787.17116 2026.72151,4784.96 2026.07795,4782.85903 L2079.83691,4755.21327 C2083.89613,4761.17063 2090.69488,4765.07459 2098.4427,4765.07459 C2110.88579,4765.07459 2120.98,4754.98039 2120.98,4742.5373 C2120.98,4730.09421 2110.88579,4720 2098.4427,4720 L2098.4427,4720 Z" id="Systemroller"></path>
        </g>
    </g>
</svg>