<?xml version="1.0" encoding="UTF-8" standalone="no"?>
<svg width="96px" height="126px" viewBox="0 0 96 126" version="1.1" xmlns="http://www.w3.org/2000/svg" xmlns:xlink="http://www.w3.org/1999/xlink">
    <!-- Generator: Sketch 40.3 (33839) - http://www.bohemiancoding.com/sketch -->
    <title>Systemforside_white</title>
    <desc>Created with Sketch.</desc>
    <defs></defs>
    <g id="Logo" stroke="none" stroke-width="1" fill="none" fill-rule="evenodd">
        <g id="Artboard-2" transform="translate(-100.000000, -148.000000)" fill="#FFFFFF">
            <path d="M100,148 L100,274 L196,274 L196,175 L172,175 C170.43,175 169,173.57 169,172 L169,148 L100,148 Z M175,148 L175,169 L196,169 L175,148 Z M125.5,220 C128.812,220 131.5,222.688 131.5,226 C131.5,229.312 128.812,232 125.5,232 C122.188,232 119.5,229.312 119.5,226 C119.5,222.688 122.188,220 125.5,220 L125.5,220 Z M148,220 C151.312,220 154,222.688 154,226 C154,229.312 151.312,232 148,232 C144.688,232 142,229.312 142,226 C142,222.688 144.688,220 148,220 L148,220 Z M170.5,220 C173.812,220 176.5,222.688 176.5,226 C176.5,229.312 173.812,232 170.5,232 C167.188,232 164.5,229.312 164.5,226 C164.5,222.688 167.188,220 170.5,220 L170.5,220 Z" id="Systemforside_white"></path>
        </g>
    </g>
</svg>