<?xml version="1.0" encoding="UTF-8" standalone="no"?>
<svg width="96px" height="126px" viewBox="0 0 96 126" version="1.1" xmlns="http://www.w3.org/2000/svg" xmlns:xlink="http://www.w3.org/1999/xlink">
    <!-- Generator: Sketch 40.3 (33839) - http://www.bohemiancoding.com/sketch -->
    <title>Systemforside_black</title>
    <desc>Created with Sketch.</desc>
    <defs></defs>
    <g id="Logo" stroke="none" stroke-width="1" fill="none" fill-rule="evenodd">
        <g id="Artboard-2" transform="translate(-265.000000, -148.000000)" fill="#000000">
            <path d="M265,148 L265,274 L361,274 L361,175 L337,175 C335.43,175 334,173.57 334,172 L334,148 L265,148 Z M340,148 L340,169 L361,169 L340,148 Z M290.5,220 C293.812,220 296.5,222.688 296.5,226 C296.5,229.312 293.812,232 290.5,232 C287.188,232 284.5,229.312 284.5,226 C284.5,222.688 287.188,220 290.5,220 L290.5,220 Z M313,220 C316.312,220 319,222.688 319,226 C319,229.312 316.312,232 313,232 C309.688,232 307,229.312 307,226 C307,222.688 309.688,220 313,220 L313,220 Z M335.5,220 C338.812,220 341.5,222.688 341.5,226 C341.5,229.312 338.812,232 335.5,232 C332.188,232 329.5,229.312 329.5,226 C329.5,222.688 332.188,220 335.5,220 L335.5,220 Z" id="Systemforside_black"></path>
        </g>
    </g>
</svg>