<?xml version="1.0" encoding="UTF-8" standalone="no"?>
<svg width="105px" height="87px" viewBox="0 0 105 87" version="1.1" xmlns="http://www.w3.org/2000/svg" xmlns:xlink="http://www.w3.org/1999/xlink">
    <!-- Generator: Sketch 41 (35326) - http://www.bohemiancoding.com/sketch -->
    <title>Vis i overblik</title>
    <desc>Created with Sketch.</desc>
    <defs></defs>
    <g id="Logo-og-ikoner" stroke="none" stroke-width="1" fill="none" fill-rule="evenodd">
        <g id="Artboard-3" transform="translate(-74.000000, -81.000000)">
            <g id="Vis-i-overblik" transform="translate(74.000000, 81.000000)">
                <g id="Group-2" fill="#000000">
                    <path d="M0,0 L0,84 L64,84 L64,18 L48,18 C46.9533333,18 46,17.0466667 46,16 L46,0 L0,0 Z M50,0 L50,14 L64,14 L50,0 Z" id="Systemforside_black" transform="translate(32.000000, 42.000000) scale(-1, 1) translate(-32.000000, -42.000000) "></path>
                </g>
                <g id="Group-3" transform="translate(36.000000, 16.000000)">
                    <path d="M0,56 C15.463973,56 28,43.463973 28,28 C28,12.536027 15.463973,0 0,0" id="Oval" stroke="#FFFFFF" stroke-width="6" fill="#000000" transform="translate(14.000000, 28.000000) rotate(-180.000000) translate(-14.000000, -28.000000) "></path>
                    <path d="M28,56 C43.463973,56 56,43.463973 56,28 C56,12.536027 43.463973,0 28,0" id="Oval-Copy" stroke="#000000" stroke-width="6"></path>
                    <path d="M49,51 L64.0189479,66.0189479" id="Line" stroke="#000000" stroke-width="10" stroke-linecap="round"></path>
                </g>
            </g>
        </g>
    </g>
</svg>